<svg version="1.2" xmlns="http://www.w3.org/2000/svg" viewBox="0 0 208 161" width="208" height="161"><style>.a{fill:#6a9298}</style><g style="opacity:.3"><path fill-rule="evenodd" class="a" d="m114 60.3c-0.8-0.9-1.6-1.7-2.4-2.5h3.8c0.7-1.1 1.3-2.1 1.8-3.2q3.6-7 7.1-14.1 1.7-3.5 2.9-7.3 0.2-0.8 0.4-1.6 0.1-0.2 0.1-0.5c0.1-1.7-1.1-2.7-2.8-2.4-1.1 0.1-2 0.7-2.6 1.6-0.8 1.2-1.6 2.4-2.1 3.7q-3.3 7.4-6.4 14.9c-3 7.2-6.2 14.2-9.5 21.3-1.5 3.1-2.9 6.2-4.3 9.2-1.3 2.7-2.8 5.3-4.7 7.6-1.2 1.6-2.6 3-4.4 4-2.3 1.3-4.5 1-6.5-0.8-1.3-1.2-1.5-2.7-1.2-4.4 0.2-1.8 0.9-3.4 1.7-5 1.8-3.8 4-7.4 6.1-11 1.3-2.3 2.5-4.7 3.8-7.1 0.3-0.6 0.5-1.2 0.3-1.8-0.1-0.4-0.3-0.8-0.8-0.9-0.6 0-1 0.4-1.4 0.8-0.5 0.8-1.1 1.5-1.5 2.3-2.2 4.6-4.9 9-7.4 13.4q-2.3 4-4.6 7.9c-1.1 1.7-2.4 3.4-3.9 4.8-0.6 0.6-1.4 1.2-2.1 1.7-1.5 0.9-3.1 0.9-4.7 0.4q-1.3-0.4-1.8-1.7c-0.7-2-0.8-4 0.2-5.9 0.7-1.7 1.6-3.3 2.6-4.8 1.5-2.6 3-5.2 4.5-7.8 1.2-2.1 2.2-4.3 2.8-6.6q0.1-0.3 0.2-0.6c0.3-1.2 0-2.1-0.9-3-1.8-1.6-3.8-1.8-6-1.2-1.4 0.3-2.5 1-3.6 2-2.6 2.5-5 5.3-7.1 8.2-3 4.3-5.9 8.7-8.9 13-1.3 1.9-2.6 3.6-4 5.4-0.8 1-1.8 1.7-3 2.1-0.6 0.2-1.2 0.3-1.8 0.4-1.1 0-1.9-0.5-2.4-1.4-0.6-1-0.5-2.1-0.2-3.2q0.6-2.2 1.9-4.2 5.7-8.6 11.4-17.2 1-1.5 1.8-3.2c0.4-0.8 0.7-1.6 0.4-2.5q-0.7-0.6-1.5-0.3c-0.6 0.2-1.2 0.4-1.7 0.8-1.4 0.9-2.6 2-3.8 3.2q-1.6 1.7-3.2 3.4c-0.4 0.4-0.9 0.6-1.5 0.4-0.5-0.4-0.2-0.8 0.1-1.2 1.4-1.8 2.9-3.7 4.4-5.5 0.8-1 1.8-1.8 2.8-2.6q1.7-1.3 3.9-1.6c1.2-0.2 2.3 0 3.4 0.4 0.7 0.2 1.1 0.7 1.3 1.5 0.2 1.1 0.1 2.2-0.3 3.3q-0.5 1-1.1 2c-3 4.6-6.1 9.2-9.2 13.8-1.6 2.3-3.3 4.6-5 7-0.6 0.8-1.2 1.6-1.4 2.6-0.1 0.7 0 1.3 0.5 1.9 0.6 0 1-0.3 1.3-0.7q1.4-1.3 2.6-2.8c0.5-0.6 0.9-1.2 1.4-1.8 3.6-5.5 7.6-10.7 11.5-15.9 1.2-1.6 2.4-3.2 3.6-4.7 1.6-2.2 3.7-3.8 6.1-5 2.8-1.4 5.6-1.3 8.5 0 1.7 0.7 2.6 2.1 2.8 4 0.2 2.7-0.3 5.3-1.8 7.7-3 4.7-5.6 9.7-8.2 14.6q-0.4 0.9-0.6 1.7c-0.1 0.4-0.2 0.9-0.1 1.3 0 1.1 0.7 1.7 1.8 1.7 1.1 0 2-0.4 2.8-1 1.2-1 2.1-2.1 2.9-3.4q5.3-9 10.5-18c1.1-1.7 2-3.5 3.1-5.3q0.9-1.6 2.5-2.7c0.7-0.5 1.6-0.9 2.5-0.9 2 0 3.3 1.5 3 3.5-0.2 1.3-0.7 2.4-1.3 3.5q-3.8 6.4-7.6 12.7-1.4 2.3-2.8 4.6c-0.8 1.5-1.4 3-1.3 4.7 0 0.3 0.1 0.8 0.2 1.1 0.6 1.5 1.9 2.2 3.4 1.7 0.5-0.2 1-0.5 1.5-0.8 1.7-1.1 2.9-2.6 4.1-4.3 2-2.9 3.6-6.1 5.1-9.3 2.3-5 4.4-10 6.8-15 2.3-4.7 4.1-9.7 6.1-14.7 1.2-3.1 2.3-6.2 3.6-9.3 1.1-2.7 2.5-5.2 4.4-7.4q0.9-0.9 1.9-1.7c2.3-1.7 4.9-1.4 6.9-0.3 1 0.6 1.4 1.5 1.6 2.5 0.2 1.5-0.1 3-0.5 4.4-0.8 2.5-1.8 4.8-2.9 7.1-2.2 4.3-4.4 8.6-6.6 12.8q-1.1 2.2-2.3 4.5c0 0.1 0 0.2-0.1 0.4h5.2q0.3-0.5 0.7-1 4.1-6.4 8.2-12.7c2.6-4.1 5.6-8 8.9-11.6 1.3-1.4 2.9-2.3 4.8-2.4 1.7 0 3.3 0.5 4.3 2q0.9 1.4 0.5 3c-0.3 1.6-1 3-1.8 4.4-1.5 2.6-3.4 5-5.4 7.3-2.7 3.2-5.5 6.3-8.2 9.4-0.4 0.5-0.8 0.9-1.2 1.5h7.8c-4.4 5.9-8.8 11.7-13.2 17.6-1.6-1.5-3.1-3-4.7-4.5-0.2 0.3-0.4 0.6-0.6 0.8-1.4 2.1-2.8 4.1-4.1 6.1-1.5 2.3-2.6 4.7-3.2 7.3-0.5 2.1 0.5 3.8 2.7 4.3 0.4 0.1 0.9 0 1.3-0.1 2.1-0.7 4-1.7 5.7-3 2.4-1.7 4.6-3.6 6.7-5.8q2.5-2.7 4.9-5.4c0.6-0.7 1.1-1.4 1.7-2.1 0.7-0.9 1.4-1.9 2.4-2.5 0.4-0.3 0.8-0.6 1.3-0.5 0.4 0.5 0.1 0.9-0.1 1.2-0.6 1.2-1.3 2.4-2 3.6-2.6 4-5.9 7.6-9.5 10.7-1.6 1.3-3.3 2.5-4.9 3.8-1.7 1.3-3.7 2.2-5.8 2.8-2.3 0.6-4.6 0-6.3-1.7-1.3-1.3-1.6-3-1.3-4.7 0.3-1.2 0.7-2.3 1.1-3.4 1.4-3.1 3.2-6 5.2-8.7 1-1.5 2-2.8 3-4.2-0.6-0.7-1.2-1.3-1.8-2-0.3 0.4-0.5 0.7-0.7 1-2.7 4.2-5 8.5-7.4 12.8-1.1 2-2.3 4-3.3 6-1.9 3.7-3.3 7.6-4.7 11.5-2.8 7.4-5.5 14.8-8.6 22.1-1.7 4-3.7 7.9-6.4 11.3-1 1.4-2.2 2.5-3.9 3.2-2.3 0.9-4.5 0.6-6.6-0.6-1.1-0.7-1.7-1.7-2.2-2.9q-1.7-4.3-0.3-8.7c1.9-6.4 4.5-12.4 8-18.2 3.8-6.5 8.1-12.7 12.4-18.9 5.3-7.6 10.4-15.3 15.1-23.3 0.4-0.7 0.8-1.4 1.3-2.2zm2.4 2.3c-0.4 0.8-0.8 1.5-1.2 2.1q-3.1 4.8-6.2 9.6c-1.1 1.8-2.2 3.6-3.4 5.3-4.3 6.1-8.8 12.1-13 18.2-3.4 4.9-6.5 9.9-8.7 15.5-0.9 2.1-1.8 4.1-2.7 6.2-0.9 2.2-1.5 4.5-1.3 6.9 0 1.4 0.2 2.7 0.9 3.9 0.9 1.7 2.5 2.2 4.3 1.4 0.6-0.3 1.2-0.7 1.8-1.1 1.6-1.2 2.8-2.8 3.9-4.4 2-3.1 3.4-6.5 4.7-9.9 1.7-4.4 3.3-8.8 5-13.2 2.1-5.6 4.5-11.1 7.1-16.6 3.1-6.5 6.6-12.8 10.4-18.9q0.7-1.1 1.3-2.2c-0.9-1-1.9-1.8-2.9-2.8zm15.3-5q0.3-0.4 0.6-0.7c2.3-3.1 4.6-6.3 7.1-9.3q3.3-4 6.4-8c0.8-1.1 1.5-2.4 2.1-3.6 0.2-0.5 0.3-1 0.4-1.5 0.1-0.7-0.1-1-0.9-1.2-1.2-0.3-2.3 0.2-3.2 1-0.7 0.6-1.3 1.3-1.9 2-1.4 1.7-2.7 3.4-4.1 5.2-3.9 5-7.1 10.4-10.7 15.7 0 0.1-0.1 0.2-0.1 0.4h4.3z"/><path class="a" d="m96 54.7c-4.3 0-8.7-3-9.9-8-1.1-4.1 0-7.8 3.1-10.8 4.1-3.9 10.7-3.5 14.4 0.8 3.8 4.3 3.7 10.6-0.2 14.8-2 2.1-4.5 3.1-7.4 3.2z"/><path class="a" d="m123.8 106.9v-8.9l-3.1 5.9h-1.9l-3-5.9v8.9h-2v-11.9h2.4l3.6 7.1 3.6-7.1h2.3v11.9h-2z"/><path class="a" d="m133.8 106.9l-0.2-1q-1.6 1.3-3.3 1.3-1.2 0-1.8-0.7-0.7-0.7-0.7-2v-6.4h2v5.8q0 0.9 0.4 1.3 0.3 0.4 1.1 0.4 1 0 2.1-0.7v-6.8h2.1v8.8c0 0-1.7 0-1.7 0z"/><path class="a" d="m148.6 106.9v-5.9q0-0.8-0.3-1.2-0.3-0.3-1-0.3-0.5 0-1.1 0.2-0.6 0.1-1.1 0.4v6.8h-2v-5.9q0-0.8-0.3-1.2-0.3-0.3-1-0.3-0.5 0-1.1 0.1-0.6 0.2-1.1 0.5v6.8h-2.1v-8.8h1.7l0.2 0.9q0.9-0.6 1.6-0.9 0.8-0.2 1.6-0.2 1.6 0 2.2 1.2 1.7-1.2 3.3-1.2 1.2 0 1.9 0.6 0.6 0.7 0.6 1.9v6.5h-2z"/><path fill-rule="evenodd" class="a" d="m152.7 106.9v-12.7h2v4.7q1.3-1 2.7-1 1.7 0 2.6 1.2 1 1.2 1 3.3 0 1.4-0.4 2.4-0.5 1.1-1.3 1.7-0.9 0.6-2 0.6-0.8 0-1.5-0.3-0.7-0.3-1.2-0.8l-0.2 0.9h-1.7zm4.1-7.4q-1.1 0-2.1 0.6v4.7q1 0.7 2.1 0.7 1.1 0 1.6-0.8 0.5-0.7 0.5-2.2 0-1.6-0.5-2.3-0.5-0.7-1.6-0.7z"/><path fill-rule="evenodd" class="a" d="m167.7 106.9l-0.1-0.8q-0.6 0.5-1.3 0.8-0.8 0.3-1.5 0.3-1.2 0-1.9-0.8-0.8-0.7-0.8-1.8 0-1.3 0.9-2.1 1-0.7 2.5-0.7 0.9 0 2 0.2v-1q0-0.9-0.4-1.2-0.4-0.4-1.3-0.3-1.4 0-3.1 0.5v-1.4q0.7-0.3 1.6-0.5 0.9-0.2 1.9-0.2 1.7 0 2.5 0.7 0.8 0.7 0.8 2.1v6.2zm-2.3-1.2q0.5 0 1-0.2 0.6-0.2 1.1-0.6v-1.7q-0.9-0.2-1.6-0.2-1.8 0-1.8 1.4 0 0.6 0.4 1 0.3 0.3 0.9 0.3z"/><path class="a" d="m172.5 96.7q-0.6 0-0.9-0.3-0.3-0.3-0.3-0.9 0-0.5 0.3-0.8 0.3-0.4 0.9-0.4 0.6 0 0.9 0.4 0.3 0.3 0.3 0.8 0 0.6-0.3 0.9-0.3 0.3-0.9 0.3zm-1 10.2v-8.8h2v8.8z"/></g></svg>