<?xml version="1.0" encoding="UTF-8"?>
<svg id="Layer_1" data-name="Layer 1" xmlns="http://www.w3.org/2000/svg" viewBox="0 0 380.85 160.74">
  <defs>
    <style>
      .cls-1 {
        opacity: .32;
      }

      .cls-2 {
        fill: #6a9298;
        stroke-width: 0px;
      }
    </style>
  </defs>
  <g class="cls-1">
    <path class="cls-2" d="m45.33,74.6c0,1.35.16,2.46.4,3.27.33.92.72,1.81,1.18,2.67.17.25.26.54.26.84,0,.37-.22.75-.71,1.11l-2.31,1.56c-.28.2-.62.32-.97.33-.36,0-.73-.19-1.1-.52-.49-.53-.94-1.11-1.33-1.73-.37-.63-.75-1.34-1.15-2.18-2.87,3.39-6.48,5.09-10.82,5.09-3.08,0-5.55-.89-7.35-2.67s-2.72-4.12-2.72-7.07,1.1-5.68,3.34-7.59,5.23-2.87,9.02-2.87c1.31,0,2.61.1,3.9.29,1.35.19,2.75.48,4.22.81v-2.68c0-2.81-.59-4.75-1.73-5.91s-3.16-1.69-5.99-1.69c-1.34,0-2.67.16-3.98.48-1.35.32-2.68.74-3.98,1.25-.42.19-.84.35-1.28.48-.19.06-.39.1-.59.12-.52,0-.78-.37-.78-1.15v-1.8c0-.59.07-1.04.26-1.28s.52-.52,1.04-.78c1.47-.74,3.02-1.29,4.63-1.66,1.88-.49,3.81-.73,5.75-.71,4.38,0,7.58.99,9.64,2.98s3.05,5.01,3.05,9.08v11.94h.07Zm-14.94,5.6c1.29-.02,2.57-.25,3.79-.68,1.33-.43,2.51-1.25,3.5-2.35.59-.68,1.02-1.49,1.25-2.36.25-1.05.37-2.13.36-3.21v-1.54c-1.12-.27-2.25-.48-3.39-.63-1.15-.14-2.3-.22-3.46-.22-2.46,0-4.26.48-5.48,1.47s-1.8,2.41-1.8,4.25.43,3.01,1.35,3.9,2.18,1.37,3.86,1.37h0Zm29.55,3.98c-.66,0-1.1-.12-1.4-.37s-.55-.73-.76-1.44l-8.66-28.49c-.22-.73-.33-1.22-.33-1.48,0-.58.3-.91.89-.91h3.6c.71,0,1.18.1,1.44.36s.5.73.73,1.44l6.18,24.41,5.73-24.41c.19-.73.4-1.22.71-1.44s.81-.36,1.47-.36h2.94c.71,0,1.18.1,1.48.36s.55.73.69,1.44l5.82,24.7,6.37-24.7c.22-.73.48-1.22.73-1.44s.76-.36,1.43-.36h3.43c.59,0,.92.29.92.91-.01.2-.04.4-.07.59-.06.31-.15.62-.26.92l-8.88,28.5c-.22.73-.48,1.21-.78,1.44-.3.23-.76.36-1.4.36h-3.16c-.71,0-1.18-.1-1.47-.36s-.56-.73-.71-1.48l-5.71-23.77-5.66,23.75c-.19.73-.4,1.21-.71,1.47-.3.26-.81.37-1.47.37h-3.17Zm47.3.99c-1.91,0-3.82-.22-5.68-.66-1.83-.45-3.27-.92-4.22-1.47-.59-.35-.99-.71-1.15-1.04-.14-.33-.21-.68-.22-1.04v-1.87c0-.78.29-1.15.85-1.15.23,0,.45.04.66.12.22.07.55.22.92.37,1.3.57,2.66,1,4.05,1.28,1.44.3,2.91.45,4.38.45,2.31,0,4.12-.4,5.36-1.21s1.92-2,1.92-3.52c.02-.96-.33-1.88-.99-2.58-.66-.69-1.92-1.33-3.72-1.92l-5.33-1.66c-2.69-.85-4.67-2.1-5.89-3.76-1.18-1.53-1.82-3.41-1.83-5.35,0-1.54.33-2.91.99-4.09.65-1.18,1.55-2.21,2.64-3.01,1.15-.87,2.45-1.53,3.83-1.93,1.51-.43,3.07-.64,4.64-.62.82,0,1.65.05,2.46.14.85.12,1.61.26,2.39.4s1.44.37,2.1.59c.53.17,1.05.4,1.54.66.52.3.88.59,1.11.92.24.36.35.79.33,1.22v1.73c0,.78-.3,1.18-.85,1.18-.3,0-.78-.14-1.4-.45-2.1-.95-4.45-1.44-7.07-1.44-2.09,0-3.75.33-4.88,1.04s-1.73,1.77-1.73,3.29c-.02.99.37,1.93,1.1,2.61.73.71,2.1,1.41,4.05,2.03l5.23,1.66c2.65.85,4.57,2.03,5.71,3.54,1.12,1.48,1.71,3.3,1.69,5.16.02,1.48-.31,2.95-.95,4.28-.65,1.26-1.57,2.37-2.69,3.24-1.14.92-2.49,1.58-4.08,2.06-1.7.53-3.48.79-5.26.78h0Z"/>
    <path class="cls-2" d="m114.19,103.09c-12.1,8.96-29.7,13.72-44.83,13.72-21.2,0-40.3-7.85-54.72-20.91-1.14-1.02-.12-2.42,1.25-1.61,15.6,9.06,34.85,14.55,54.77,14.55,13.43,0,28.18-2.8,41.77-8.54,2.02-.92,3.75,1.33,1.76,2.8h0Zm5.04-5.75c-1.54-1.99-10.23-.95-14.16-.48-1.18.14-1.37-.88-.3-1.66,6.93-4.87,18.3-3.47,19.62-1.84s-.37,13.05-6.84,18.5c-.99.85-1.96.4-1.51-.69,1.47-3.66,4.75-11.87,3.2-13.83h0Z"/>
    <g>
      <path class="cls-2" d="m166.47,74.96c0-.89-.28-1.61-.85-2.15-.57-.55-1.62-1.1-3.17-1.67l-5.06-1.94c-4.55-1.74-6.82-4.57-6.82-8.5,0-2.83,1.05-5.07,3.16-6.71,2.1-1.64,4.92-2.46,8.44-2.46s6.39.65,9.1,1.94v5.04c-3.17-1.01-6.08-1.52-8.72-1.52-1.87,0-3.24.27-4.11.82-.87.55-1.31,1.41-1.31,2.58,0,.89.31,1.61.94,2.15.63.55,1.76,1.14,3.38,1.79l4.69,1.82c2.44.93,4.19,2.04,5.27,3.34,1.08,1.3,1.62,2.93,1.62,4.92,0,3.03-1.09,5.43-3.28,7.19-2.19,1.76-5.22,2.64-9.1,2.64-1.9,0-3.76-.2-5.58-.61-1.82-.4-3.42-.97-4.79-1.7v-5.04c3.9,1.25,7.35,1.88,10.36,1.88,2.03,0,3.51-.31,4.45-.94.93-.63,1.4-1.59,1.4-2.88Z"/>
      <path class="cls-2" d="m195.42,82.6c-2.1.77-4.37,1.15-6.8,1.15-3.2,0-5.56-.75-7.1-2.25-1.54-1.5-2.31-3.78-2.31-6.86v-16.75h-5.22v-4.49l5.46-.79,1.09-8.68h5.83v8.5h8.8v5.46h-8.8v16.39c0,1.38.33,2.36,1,2.94.67.59,1.79.88,3.37.88,1.7,0,3.26-.16,4.67-.49v4.98Z"/>
      <path class="cls-2" d="m217.75,83.33l-.55-2.97c-1.42,1.21-2.98,2.17-4.7,2.85-1.72.69-3.43,1.03-5.13,1.03-2.83,0-5.13-.85-6.89-2.55-1.76-1.7-2.64-3.9-2.64-6.62,0-2.99,1.08-5.38,3.25-7.16,2.16-1.78,5.07-2.67,8.71-2.67,2.14,0,4.49.3,7.04.91v-3.58c0-2.06-.45-3.5-1.34-4.31-.89-.81-2.45-1.21-4.67-1.21-3.16,0-6.78.67-10.86,2v-5.04c1.52-.77,3.39-1.37,5.59-1.82,2.2-.45,4.42-.67,6.64-.67,4.04,0,7.01.81,8.93,2.43,1.92,1.62,2.87,4.15,2.87,7.59v21.79h-6.25Zm-8.19-4.19c1.14,0,2.35-.25,3.61-.76,1.26-.51,2.48-1.22,3.67-2.15v-5.83c-2.09-.44-3.94-.67-5.56-.67-4.1,0-6.15,1.64-6.15,4.92,0,1.42.39,2.52,1.18,3.31s1.87,1.18,3.25,1.18Z"/>
      <path class="cls-2" d="m230.74,83.33v-30.89h5.95l.97,4.61c1.62-1.78,3.14-3.03,4.55-3.76,1.42-.73,2.95-1.09,4.61-1.09.77,0,1.6.06,2.49.18v6.56c-1.13-.2-2.29-.3-3.46-.3-2.99,0-5.64.77-7.95,2.31v22.4h-7.16Z"/>
      <path class="cls-2" d="m272.62,82.6c-2.1.77-4.37,1.15-6.8,1.15-3.2,0-5.56-.75-7.1-2.25-1.54-1.5-2.31-3.78-2.31-6.86v-16.75h-5.22v-4.49l5.46-.79,1.09-8.68h5.83v8.5h8.8v5.46h-8.8v16.39c0,1.38.33,2.36,1,2.94.67.59,1.79.88,3.37.88,1.7,0,3.26-.16,4.67-.49v4.98Z"/>
      <path class="cls-2" d="m297.75,83.33l-.73-3.4c-3.8,2.87-7.59,4.31-11.35,4.31-2.87,0-5.09-.8-6.65-2.4-1.56-1.6-2.34-3.89-2.34-6.89v-22.52h7.16v20.39c0,1.98.4,3.44,1.21,4.37.81.93,2.1,1.4,3.88,1.4,2.51,0,5.04-.83,7.59-2.49v-23.67h7.16v30.89h-5.95Z"/>
      <path class="cls-2" d="m311.04,95.84v-43.4h5.95l.67,3.1c1.42-1.29,2.98-2.29,4.7-2.97,1.72-.69,3.51-1.03,5.37-1.03,3.84,0,6.91,1.44,9.2,4.31,2.29,2.87,3.43,6.74,3.43,11.59,0,3.24-.53,6.1-1.58,8.59-1.05,2.49-2.57,4.44-4.55,5.86-1.98,1.42-4.31,2.12-6.98,2.12-1.7,0-3.34-.29-4.92-.88-1.58-.59-2.95-1.41-4.13-2.46v15.17h-7.16Zm14.45-38.66c-2.63,0-5.06.77-7.28,2.31v16.51c2.27,1.58,4.67,2.37,7.22,2.37s4.51-.88,5.77-2.64c1.25-1.76,1.88-4.44,1.88-8.04s-.62-6.2-1.85-7.92c-1.23-1.72-3.15-2.58-5.74-2.58Z"/>
      <path class="cls-2" d="m360.14,74.96c0-.89-.28-1.61-.85-2.15-.57-.55-1.62-1.1-3.17-1.67l-5.06-1.94c-4.55-1.74-6.82-4.57-6.82-8.5,0-2.83,1.05-5.07,3.16-6.71,2.1-1.64,4.92-2.46,8.44-2.46s6.39.65,9.1,1.94v5.04c-3.17-1.01-6.08-1.52-8.72-1.52-1.87,0-3.24.27-4.12.82-.87.55-1.31,1.41-1.31,2.58,0,.89.31,1.61.94,2.15.63.55,1.76,1.14,3.38,1.79l4.69,1.82c2.44.93,4.19,2.04,5.27,3.34,1.08,1.3,1.61,2.93,1.61,4.92,0,3.03-1.09,5.43-3.28,7.19-2.19,1.76-5.22,2.64-9.1,2.64-1.9,0-3.76-.2-5.58-.61-1.82-.4-3.42-.97-4.79-1.7v-5.04c3.9,1.25,7.35,1.88,10.36,1.88,2.03,0,3.51-.31,4.45-.94.93-.63,1.4-1.59,1.4-2.88Z"/>
    </g>
  </g>
</svg>