<?xml version="1.0" encoding="UTF-8"?>
<svg id="Layer_1" data-name="Layer 1" xmlns="http://www.w3.org/2000/svg" viewBox="0 0 380.85 160.74">
  <defs>
    <style>
      .cls-1 {
        opacity: .32;
      }

      .cls-2 {
        fill: #6a9298;
        stroke-width: 0px;
      }
    </style>
  </defs>
  <g class="cls-1">
    <path class="cls-2" d="m93.68,36.49c.62.08,1.24.17,1.86.23,6.11.61,11.6,2.79,16.46,6.55.91.7,1.76,1.48,2.64,2.22.15.12.33.21.42.26-2.27,2.27-4.43,4.43-6.62,6.62-.13-.11-.31-.26-.49-.41-3.41-3.02-7.32-5.01-11.83-5.76-13.53-2.27-25.17,6.15-28.07,18.3-1.83,7.66-.47,14.8,4.26,21.15,3.93,5.27,9.23,8.41,15.73,9.38,5.15.77,10.17.16,14.9-2.15,2.49-1.21,4.64-2.89,6.5-4.93,1.99-2.18,3.17-4.8,3.88-7.63.27-1.07.45-2.16.69-3.33h-22.24v-9.24h31.35c.11.94.27,1.86.33,2.78.31,4.72-.1,9.37-1.6,13.87-2.93,8.82-8.99,14.65-17.49,18.08-2.93,1.18-6.03,1.75-9.18,1.99-2.39.19-4.77.2-7.15-.06-4.11-.45-8.04-1.57-11.72-3.47-8.93-4.61-14.95-11.67-17.85-21.33-.6-2-.96-4.05-1.13-6.13-.03-.41-.15-.8-.23-1.2,0-1.17,0-2.34,0-3.52.08-.4.18-.8.24-1.2.16-1.09.24-2.2.46-3.28,1.61-7.99,5.6-14.58,11.86-19.78,5.36-4.45,11.53-7.05,18.46-7.8.6-.07,1.19-.16,1.79-.23,1.26,0,2.52,0,3.78,0Z"/>
    <path class="cls-2" d="m241.33,124.25c-.66-.11-1.32-.22-1.98-.34-6.03-1.17-10.58-4.48-13.86-9.61-.58-.91-1.09-1.86-1.5-2.94,2.78-1.16,5.54-2.31,8.33-3.47.11.2.2.37.28.54.84,1.74,1.97,3.27,3.45,4.52,2.5,2.12,5.41,2.94,8.65,2.66,1.22-.1,2.41-.33,3.55-.77,3.29-1.27,5.25-3.72,6.22-7.03.33-1.13.55-2.28.58-3.46.04-1.54,0-3.08,0-4.64-.15-.12-.29-.03-.41.11-.3.31-.58.64-.9.94-2.08,1.92-4.56,3.08-7.33,3.57-5.17.91-9.93-.24-14.25-3.12-5.35-3.56-8.62-8.56-9.65-14.9-1.77-10.86,4.63-20.91,14.14-24.35,4.02-1.45,8.09-1.64,12.18-.23,2.19.76,4.11,1.94,5.7,3.65.14.15.26.37.6.22v-3.43h9.11c.01.21.03.4.03.59,0,13.04,0,26.08,0,39.12,0,3.45-.47,6.84-1.7,10.08-2.43,6.42-7.07,10.29-13.74,11.77-.87.19-1.75.28-2.63.41-.15.02-.29.07-.43.11h-4.43Zm-9.45-41.49c0,.11,0,.22,0,.33.02.32.04.65.06.97.26,3.11,1.35,5.88,3.51,8.13,3.01,3.14,6.71,4.4,11,3.53,3.34-.67,5.82-2.65,7.46-5.6,2.19-3.9,2.42-8.04,1.1-12.27-.91-2.91-2.63-5.26-5.27-6.87-4.19-2.55-9.69-1.97-13.46,1.44-3.05,2.76-4.35,6.29-4.42,10.33Z"/>
    <path class="cls-2" d="m323.75,77.25c-6.29,2.61-12.57,5.21-18.86,7.82-3.22,1.34-6.45,2.67-9.67,4.01-.2.08-.39.17-.57.25-.02.07-.05.12-.03.15,1.41,2.78,3.43,4.91,6.45,5.89,4.53,1.46,10.07.69,13.92-4.12.32-.4.63-.82,1-1.29,2.48,1.65,4.94,3.29,7.45,4.97-.22.31-.4.58-.59.83-3.48,4.54-7.95,7.52-13.62,8.52-8.38,1.48-16.82-1.55-21.82-8.63-2.32-3.28-3.59-6.95-3.92-10.95-.35-4.37.3-8.58,2.27-12.51,3.01-5.98,7.8-9.78,14.39-11,8.02-1.48,14.56,1.16,19.49,7.67,1.32,1.74,2.35,3.64,3.14,5.67.32.83.65,1.65.98,2.47v.26Zm-30.85,4.81c6.65-2.76,13.12-5.45,19.64-8.16-.14-.3-.24-.53-.37-.75-.65-1.14-1.59-2-2.73-2.63-2.24-1.23-4.63-1.57-7.11-1.02-4.96,1.11-8.67,5.24-9.28,10.28-.08.7-.1,1.41-.15,2.28Z"/>
    <path class="cls-2" d="m149.29,60.77c6.82.13,12.6,2.57,17.05,7.83,2.63,3.11,4.17,6.73,4.72,10.76.74,5.39-.14,10.48-3.06,15.11-3.51,5.56-8.6,8.85-15.09,9.86-6.32.99-12.13-.37-17.24-4.28-4.47-3.42-7.14-7.99-8.05-13.53-.91-5.53-.03-10.78,2.96-15.56,3.31-5.3,8.14-8.47,14.25-9.74,1.47-.3,2.96-.42,4.47-.44Zm12.38,21.91c.01-1.53-.18-3.04-.68-4.48-1.73-5-5.16-8.1-10.47-8.69-4.42-.49-8.09,1.19-10.83,4.71-3.13,4.01-3.68,10.04-1.36,14.73,2.04,4.12,5.36,6.56,9.96,6.99,4.05.37,7.45-1.1,10.13-4.15,2.28-2.59,3.23-5.69,3.25-9.1Z"/>
    <path class="cls-2" d="m218.81,82.77c-.23,7.73-3.32,14.01-9.93,18.36-3.9,2.57-8.26,3.65-12.92,3.48-4.97-.17-9.44-1.77-13.3-4.93-4.26-3.49-6.79-8-7.62-13.43-.78-5.11-.04-10.01,2.54-14.52,3.24-5.67,8.16-9.14,14.53-10.46,5.27-1.09,10.39-.47,15.16,2.08,6.19,3.3,9.88,8.49,11.15,15.39.1.55.18,1.11.23,1.67.07.76.1,1.51.15,2.36Zm-34.4-.09c-.02,2.05.34,4.03,1.2,5.88,2.02,4.33,5.38,6.94,10.17,7.37,4.28.39,7.82-1.26,10.49-4.62,3.67-4.61,3.85-11.69.5-16.57-4.47-6.53-13.75-7.15-19.02-1.25-2.33,2.61-3.32,5.73-3.35,9.2Z"/>
    <path class="cls-2" d="m279.32,103.26h-9.32V39.07h9.32v64.19Z"/>
  </g>
</svg>