<?xml version="1.0" encoding="UTF-8"?>
<svg id="Layer_1" data-name="Layer 1" xmlns="http://www.w3.org/2000/svg" viewBox="0 0 380.85 160.74">
  <defs>
    <style>
      .cls-1 {
        opacity: .32;
      }

      .cls-2 {
        fill: #6a9298;
        stroke-width: 0px;
      }
    </style>
  </defs>
  <g class="cls-1">
    <path class="cls-2" d="m114.84,89.73c-3.61,8.33-11.27,12.23-18.18,11.62-8.45-.76-13.65-5.63-16.31-13.6,0,2.25,0,4.49,0,6.74,0,.88.03,1.76-.03,2.64-.15,2.17-1.59,3.81-3.64,4.22-1.88.37-3.74-.57-4.75-2.42-.16-.29-.3-.6-.5-1-.27.15-.52.27-.76.41-12.04,7.34-27.19.76-30.08-13.06-2.13-10.21,2.43-20.15,11.28-24.25,6.72-3.11,13.21-2.37,19.52,1.71.84-1.92,2.02-3.5,4.32-3.57,2.24-.07,3.62,1.2,4.58,3.29.15-.3.22-.44.29-.58,1.15-2.09,3.07-3.08,5.07-2.62,2.12.5,3.47,2.22,3.5,4.64.04,2.89,0,5.77.01,8.66,0,3.91-.07,7.83.07,11.74.14,3.83,2.51,6.73,6.05,7.79,3.52,1.05,7.34-.19,9.57-3.12,1.26-1.66,1.78-3.55,1.78-5.62-.01-6.26,0-12.52,0-18.78,0-2.73.91-4.37,2.85-5.11,1.96-.75,3.66-.14,5.47,1.98.06.07.17.09.25.13,2.75-3.26,5.59-3.27,8.32.1,5.02-2.86,10.28-3.38,15.69-1.12,5.33,2.23,8.67,6.3,10.38,11.85,6.88-15.3,25.57-16.63,34.73-7.29.04-.52.09-.92.1-1.31,0-5.48,0-10.96,0-16.44,0-3.13,1.91-5.23,4.71-5.21,2.81.02,4.68,2.1,4.68,5.24,0,4.65,0,9.29,0,13.88,2.21-.64,4.34-1.48,6.56-1.85,9.78-1.66,19.58,5.75,20.74,15.6.15,1.31.23,2.63.23,3.95.02,5.82.03,11.64,0,17.46-.01,3.02-1.98,5.05-4.76,5-2.71-.04-4.56-2.06-4.57-5.03-.01-6.07,0-12.13,0-18.2-.01-5.47-3.97-9.64-9.13-9.64-5.05,0-9.04,4.19-9.06,9.57-.02,5.97,0,11.94,0,17.9,0,3.22-1.74,5.29-4.53,5.38-2.79.1-4.71-1.97-4.87-5.24,0-.13-.05-.26-.07-.32-5.39,4.52-11.55,6.43-18.48,5.2-6.98-1.23-12.09-5.22-15.65-11.66-.06.59-.13.93-.13,1.27-.01,2.1.03,4.21-.02,6.31-.06,2.52-1.96,4.42-4.35,4.43-2.45.01-4.46-1.93-4.48-4.47-.04-6.6.01-13.21-.03-19.81-.03-5-3.66-8.78-8.44-8.91-4.92-.13-8.75,3.48-8.8,8.43-.06,6.6,0,13.21-.03,19.81-.01,3.47-3.06,5.78-6.12,4.69-1.83-.65-2.94-2.22-2.97-4.28-.03-2.38,0-4.76,0-7.14Zm69.52-19.97c-2.79,2.54-4.34,2.66-7.32.73-.69-.45-1.43-.86-2.18-1.19-6.56-2.89-14.17.13-16.86,6.68-2.53,6.14.67,13.21,7.16,15.63,4.35,1.62,8.47.88,12.25-1.72,1.65-1.14,3.32-1.39,5.08-.42.65.36,1.21.9,1.87,1.41v-21.1Zm-112.88,10.56c-.13-.97-.21-1.94-.4-2.9-1.31-6.56-7.59-10.65-13.84-8.83-4.85,1.41-7.25,5.02-8.02,9.85-.83,5.22,1.66,10.56,5.91,12.72,7.72,3.92,16.27-1.78,16.35-10.84Z"/>
    <path class="cls-2" d="m231.01,93.76c0,3.19,0,6.06,0,8.94,0,4.3,0,8.61,0,12.91,0,1.37-.31,2.55-1.85,2.94-1.28.33-2.5-.39-2.83-1.66-.1-.37-.13-.77-.13-1.16,0-17.9,0-35.79,0-53.69,0-.2,0-.39.02-.59.15-1.48.97-2.3,2.32-2.34,1.4-.04,2.35.8,2.44,2.35.08,1.5.02,3.01.02,4.92,5.11-5.59,11.13-8.04,18.31-7.09,5.38.71,9.75,3.32,13.11,7.58,6.69,8.47,5.74,21.06-2.08,28.57-7.22,6.93-20.19,8.26-29.33-1.67Zm31-13.66c.08-8.78-6.89-16.17-15.32-16.25-8.46-.08-15.59,7.05-15.68,15.7-.1,9.07,6.74,16.48,15.29,16.56,8.56.08,15.62-7.12,15.71-16.01Z"/>
    <path class="cls-2" d="m311.94,59.04c7.78.2,13.23,3.2,17.16,8.88,5.63,8.13,4.93,19.2-1.59,26.64-8.16,9.32-22.25,8.99-29.98-.7-9.37-11.75-4.23-29.74,9.75-33.95,1.76-.53,3.63-.69,4.66-.88Zm-14.58,21.03c.32,1.77.47,3.59.99,5.3,2.38,7.87,10.13,12.66,17.55,10.84,6.18-1.52,10.03-5.61,11.6-11.62,1.69-6.47.08-12.24-4.88-16.84-5.79-5.37-14.35-5.18-20.01.33-3.36,3.27-4.95,7.31-5.25,11.99Z"/>
    <path class="cls-2" d="m29.43,71.77c0-8.31-.01-16.62,0-24.93,0-2.48,1.81-4.46,4.16-4.71,2.32-.24,4.5,1.25,5.07,3.53.13.51.14,1.06.14,1.6,0,16.32,0,32.65,0,48.97,0,3.07-1.97,5.19-4.76,5.16-2.71-.02-4.62-2.13-4.62-5.15,0-8.16,0-16.32,0-24.49Z"/>
    <path class="cls-2" d="m339.15,63.85c-1.74,0-3.34.01-4.94,0-1.78-.02-2.8-.85-2.83-2.28-.03-1.52.99-2.44,2.79-2.47,1.6-.02,3.2,0,4.97,0,0-.98,0-1.8,0-2.61,0-3.76-.01-7.53,0-11.29,0-1.84.91-2.97,2.32-2.98,1.51-.02,2.46,1.09,2.48,3,.02,4.06,0,8.11.01,12.17,0,.52.04,1.04.07,1.72,1.63,0,3.13-.02,4.63,0,1.73.03,2.73.91,2.75,2.37.02,1.44-1,2.34-2.74,2.37-1.47.03-2.93.03-4.4.05-.04,0-.08.05-.33.23v1.54c0,9.04,0,18.09,0,27.13,0,2.86.39,3.34,3.18,3.93,1.28.27,2.05,1.29,1.93,2.53-.12,1.24-1.04,2.08-2.36,2.16-4.05.24-7.53-3.32-7.55-7.83-.03-9.04,0-18.09,0-27.13,0-.82,0-1.64,0-2.62Z"/>
    <path class="cls-2" d="m287.96,71.78c0,8.7,0,17.39,0,26.09,0,.63-.02,1.28-.2,1.88-.33,1.11-1.18,1.69-2.33,1.6-1.12-.09-1.93-.69-2.15-1.86-.1-.52-.11-1.07-.11-1.6,0-17.44,0-34.89,0-52.33,0-.44,0-.88.06-1.32.18-1.3.98-2.02,2.25-2.09,1.31-.07,2.1.7,2.39,1.93.12.51.09,1.07.09,1.6,0,8.7,0,17.39,0,26.09Z"/>
    <path class="cls-2" d="m276.18,80.14c0,5.82,0,11.63,0,17.45,0,.44.02.88-.02,1.32-.15,1.5-1.1,2.47-2.4,2.47-1.29,0-2.26-1-2.37-2.49-.05-.68-.02-1.37-.02-2.05,0-11.53,0-23.07,0-34.6,0-2.06.64-2.97,2.12-3.11,1.69-.16,2.68.85,2.69,2.84.02,4.25,0,8.5,0,12.76,0,1.81,0,3.62,0,5.42Z"/>
    <path class="cls-2" d="m276.29,49.74c-.13.66-.05,1.51-.44,1.93-.56.61-1.43,1.15-2.23,1.27-1.05.15-1.86-.59-2.08-1.65-.17-.84-.19-1.74-.13-2.6.09-1.42,1.02-2.31,2.3-2.36,1.3-.05,2.3.91,2.46,2.37.04.34,0,.68,0,1.02l.12.02Z"/>
  </g>
</svg>