<?xml version="1.0" encoding="UTF-8"?>
<svg id="Layer_1" data-name="Layer 1" xmlns="http://www.w3.org/2000/svg" viewBox="0 0 380.85 160.74">
  <defs>
    <style>
      .cls-1 {
        opacity: .32;
      }

      .cls-2 {
        fill: #6a9298;
        stroke-width: 0px;
      }
    </style>
  </defs>
  <g class="cls-1">
    <path class="cls-2" d="m42.55,137.84V44.6c7.84-7.21,15.74-14.47,23.59-21.69h272.16v93.31h-23.56v21.61H42.55Zm30.81-28.82h257.76V30.18H73.35v78.84Zm234.11,7.33H69.78c-5,4.65-10.07,9.36-15.48,14.39h253.16v-14.39ZM49.72,51.83v73.3c5.71-5.27,11.06-10.22,16.31-15.06v-58.24h-16.31Zm3.64-7.44h12.72v-11.67c-4.29,3.94-8.27,7.59-12.72,11.67Z"/>
    <path class="cls-2" d="m189.77,91.82h-6.29c-.15-1.03-.42-2.09-.44-3.15-.06-3.32-.02-6.65-.02-9.98,0-4.93-1.57-6.26-6.82-5.5v18.45h-6.78v-44.17c4.85.31,9.67.32,14.39,1.03,3.54.53,5.3,3.45,5.69,6.86.29,2.53.17,5.13-.02,7.67-.2,2.68-1.48,4.86-4.13,6.34,3.88,1.84,4.33,5.2,4.4,8.65.08,4.55.02,9.1.02,13.8Zm-13.53-25.19c5.26.57,6.67-.69,6.67-5.7,0-.97.04-1.94-.03-2.91-.27-3.71-3.2-5.24-6.65-3.48v12.08Z"/>
    <path class="cls-2" d="m118.14,69.87c0-4.01-.04-8.02,0-12.03.04-3.88,1.19-7.32,4.78-9.28,3.84-2.1,7.88-2.07,11.69.1,3.32,1.9,4.5,5.19,4.54,8.8.1,8.3.11,16.6.01,24.9-.08,6.58-4.25,10.24-11.25,10.15-5.72-.08-9.73-4.32-9.77-10.4-.03-4.08,0-8.16,0-12.24Zm6.92-.15s-.02,0-.03,0c0,4.22-.04,8.44.02,12.66.03,2.53,1.38,3.93,3.58,3.93,2.16,0,3.6-1.28,3.62-3.68.08-8.58.07-17.15,0-25.73-.02-2.12-1.28-3.3-3.15-3.45-2.46-.2-3.95,1.03-4.01,3.61-.1,4.22-.03,8.44-.03,12.66Z"/>
    <path class="cls-2" d="m286.57,91.69h-6.32c-.14-.99-.4-1.98-.41-2.98-.06-3.32-.03-6.65-.04-9.97-.01-4.9-1.62-6.27-6.87-5.55v18.45h-6.74v-43.59c4.54,0,8.99-.41,13.33.11,4.45.54,6.86,3.97,6.94,8.51.03,1.52,0,3.05,0,4.57-.03,3.29-.97,6.13-4.18,8.1,4.14,2.21,4.3,6,4.3,9.86,0,4.07,0,8.15,0,12.5Zm-13.52-25.09c5.1.71,6.68-.62,6.68-5.51,0-.62,0-1.24,0-1.86.06-4.59-2.13-6.23-6.69-4.87v12.24Z"/>
    <path class="cls-2" d="m240.34,69.78c0-4.08-.02-8.16,0-12.25.04-6.3,4.1-10.28,10.47-10.31,6.34-.03,10.46,3.94,10.51,10.28.06,8.16.08,16.33.01,24.49-.03,4.14-1.49,7.75-5.48,9.49-4.09,1.79-8.28,1.68-11.97-1.19-2.51-1.95-3.49-4.76-3.54-7.86-.06-4.22-.02-8.44-.02-12.66Zm14.13.1c0-4.15.05-8.3-.02-12.45-.04-2.7-1.35-4.02-3.7-3.99-2.42.03-3.57,1.4-3.59,4.55-.05,7.12-.04,14.25-.03,21.37,0,1.38,0,2.78.21,4.13.28,1.81,1.5,2.73,3.33,2.78,2.32.07,3.73-1.31,3.78-3.95.07-4.15.02-8.3.01-12.45Z"/>
    <path class="cls-2" d="m143.87,47.89h6.6c0,.9,0,1.7,0,2.51,0,10.18,0,20.36,0,30.54,0,.69-.04,1.39.03,2.08.21,2,1.46,3.19,3.38,3.27,1.98.09,3.44-1.11,3.72-3.14.11-.82.06-1.66.06-2.49,0-10.04,0-20.08,0-30.12,0-.82,0-1.64,0-2.62h6.56c0,.84,0,1.64,0,2.45,0,10.53,0,21.05.01,31.58,0,10.19-8.85,12.14-14.98,9.69-3.8-1.52-5.49-4.8-5.55-8.57-.19-11.49-.07-22.99-.07-34.48,0-.19.13-.38.23-.69Z"/>
    <path class="cls-2" d="m193.45,79.05h6.5c0,1.3-.06,2.52.01,3.74.13,2.23,1.46,3.51,3.54,3.53,2.06.02,3.38-1.26,3.61-3.49.5-4.89-2.45-7.95-5.65-10.96-1.96-1.84-3.93-3.74-5.46-5.92-2.93-4.15-3.25-8.8-1.26-13.43,1.82-4.22,6.22-6.06,11.55-5.2,3.84.62,6.81,3.71,7.39,7.93.2,1.48.03,3.02.03,4.67h-6.28c0-.94.07-1.88-.01-2.82-.21-2.46-1.5-3.73-3.63-3.66-2.14.07-3.61,1.43-3.29,3.87.28,2.09,1.08,4.29,2.25,6.04,1.24,1.85,3.14,3.28,4.83,4.81,4.24,3.86,6.86,8.37,6.54,14.37-.31,5.61-4.14,9.86-9.37,9.96-6.99.13-10.96-3.25-11.29-9.61-.06-1.22,0-2.45,0-3.83Z"/>
    <path class="cls-2" d="m288.64,47.85h7.11c1.53,5.15,3.05,10.26,4.57,15.38.18.01.36.02.55.04,1.51-5.1,3.03-10.2,4.57-15.37h6.56c-.89,2.76-1.68,5.3-2.51,7.83-1.59,4.86-3.3,9.68-4.77,14.58-.59,1.95-.91,4.03-.98,6.07-.14,4.29-.04,8.58-.04,12.87,0,.75-.06,1.49-.1,2.4h-6.72c0-2.04-.14-4.04.02-6.01.69-8.57-.76-16.75-4.01-24.69-1.49-3.64-2.52-7.46-3.75-11.2-.19-.57-.3-1.17-.48-1.89Z"/>
    <path class="cls-2" d="m109.92,47.84h6.58c-1.24,3.8-2.42,7.44-3.62,11.08-1.39,4.2-2.84,8.38-4.18,12.6-.35,1.1-.5,2.3-.51,3.46-.06,4.78-.03,9.56-.03,14.33,0,.74,0,1.48,0,2.35h-6.56c-.08-.52-.2-1.04-.22-1.57-.04-.9-.09-1.81,0-2.7,1.06-10.24-1.28-19.89-4.98-29.33-1.27-3.25-2.22-6.63-3.38-10.17h7.21c1.51,5.11,3.05,10.32,4.59,15.53.15.02.3.03.45.05,1.54-5.17,3.07-10.35,4.64-15.64Z"/>
    <path class="cls-2" d="m216.46,47.84h21.07v6.05h-7.09v37.74h-6.9v-37.65h-7.08v-6.13Z"/>
  </g>
</svg>