<?xml version="1.0" encoding="UTF-8"?>
<svg id="Layer_1" data-name="Layer 1" xmlns="http://www.w3.org/2000/svg" viewBox="0 0 380.85 160.74">
  <defs>
    <style>
      .cls-1 {
        opacity: .32;
      }

      .cls-2 {
        fill: #6a9298;
        stroke-width: 0px;
      }
    </style>
  </defs>
  <g class="cls-1">
    <path class="cls-2" d="m221.05,78.5v14.5c-.94.35-5.46.41-6.83.1-.03-.46-.09-.97-.09-1.47,0-9.09,0-18.18,0-27.27,0-3.19,0-6.38,0-9.57,0-.47.05-.94.07-1.43.28-.11.49-.24.71-.26,1.14-.14,5.24-.02,6.09.17.04.93.08,1.91.12,2.99.22-.12.36-.16.46-.25,2.12-2.07,4.67-3.33,7.57-3.8,1.77-.29,3.57-.18,5.32.33,4.74,1.4,7.9,4.55,9.7,9.03,1.29,3.21,1.45,6.55.5,9.95-.73,2.6-2,4.88-3.81,6.8-1.31,1.39-2.91,2.47-4.72,3.19-3.37,1.35-6.76,1.35-10.13.04-1.5-.58-2.83-1.45-4.01-2.54-.23-.21-.46-.42-.69-.62-.09.03-.17.06-.26.1Zm.73-11.16c.15,4.83,3.71,8.17,8.11,8.18,4.95.01,8.29-3.36,8.32-8.16.03-4.56-3.03-8.12-8.25-8.25-4.35-.11-8.09,3.42-8.18,8.22Z"/>
    <path class="cls-2" d="m315.63,56.15v-14.99c.97-.35,5.3-.39,6.48-.11.03.03.06.05.08.09.02.03.04.07.05.11.03.28.07.55.07.83,0,12.96,0,25.93-.02,38.89,0,.11-.06.23-.08.34-.8.32-4.99.4-6.5.09-.03-.5-.07-1.04-.09-1.58-.02-.51,0-1.02,0-1.8-.43.36-.7.55-.92.79-2.1,2.27-4.77,3.46-7.75,3.9-2.63.39-5.16-.16-7.52-1.4-3.13-1.63-5.35-4.13-6.73-7.34-.77-1.79-1.22-3.68-1.27-5.68-.07-2.55.24-5.02,1.29-7.35,1.61-3.6,4.11-6.33,7.83-7.81,4.73-1.87,9.14-1.15,13.26,1.7.58.4,1.06.94,1.58,1.41.09-.03.17-.07.26-.1Zm-8.78,2.69c-2.24-.25-4.12.72-5.66,2.35-2.65,2.82-3.09,7.27-1.14,10.53,1.6,2.67,3.99,4.14,7.09,4.06,2.51-.06,4.62-1.23,6.06-3.32,1.75-2.55,2.17-5.3,1.14-8.29-1.06-3.05-4.18-5.68-7.49-5.33Z"/>
    <path class="cls-2" d="m274.98,119.98c-.1-.34-.28-.67-.27-1,.01-2.1-.14-4.2.1-6.41.58-.05,1.08-.12,1.59-.12,7.93,0,15.87,0,23.8,0,.51,0,1.02,0,1.65,0,.05-.63.11-1.12.11-1.62,0-7.86,0-15.71,0-23.57,0-.47.03-.94.06-1.51,2.31-.23,4.53-.07,6.74-.1,2.19-.03,4.39,0,6.58,0h6.7c2.19,0,4.39,0,6.58,0,2.22,0,4.44-.01,6.61.01.29,1.05.34,5.64.09,7.06-.46.04-.96.11-1.46.11-7.7,0-15.39,0-23.09,0h-1.52c-.04.64-.1,1.14-.1,1.64,0,7.97,0,15.95,0,23.92,0,.51-.04,1.01-.06,1.48-.96.28-31.99.38-34.11.12Z"/>
    <path class="cls-2" d="m31.69,81.53c-2.12.07-4.05.04-6.14.02.19-1.1.35-2.02.52-2.94.17-.93.58-1.81.56-2.77-.87-.32-3.47-.37-4.84-.09-.71,1.77-.76,3.76-1.47,5.71-1.92.21-3.88.11-5.97.04-.13-2.05.96-3.84.89-5.83-1.32-.26-2.65.1-4.02-.26-.14-1.96-.07-3.89-.05-5.93,1.89-.31,3.72.04,5.63-.23.58-2.62,1.16-5.21,1.74-7.84-1.33-.41-2.59,0-3.92-.32-.25-1.94-.11-3.9-.08-5.96,1.77-.31,3.49,0,5.3-.22.12-.37.29-.77.38-1.18.36-1.59.69-3.19,1.05-4.78.08-.34.25-.66.4-1.05,2.05-.13,4.06-.14,6.22.02-.34,2.38-1.12,4.56-1.39,6.98,1.65.15,3.2.19,4.81-.03.52-2.33,1.02-4.57,1.51-6.76.92-.34,4.71-.41,6.11-.14.36.42.19.89.08,1.35-.34,1.43-.68,2.87-1.02,4.3-.09.38-.15.76-.26,1.3,1.36.05,2.61.1,3.95.15.14,2.03.15,3.95,0,5.97-1.75.41-3.48,0-5.13.26-.58.97-1.88,6.7-1.78,7.98,1.15.05,2.32.1,3.45.15.27,1.02.3,4.74.06,6.03-1.67.32-3.43-.06-5.18.22-.46,1.94-.92,3.82-1.4,5.84Zm-3.62-12.25c.76-2.65,1.28-5.23,1.74-7.96-1.71-.13-3.26-.2-4.86.05-.58,2.67-1.3,5.21-1.77,7.91h4.88Z"/>
    <path class="cls-2" d="m118.94,55.61c.49-.36.37-.83.39-1.25.06-1.25.28-1.49,1.47-1.51,1.43-.02,2.87-.01,4.3,0,.31,0,.61.08,1.02.14.05.43.14.81.14,1.19,0,8.69,0,17.38,0,26.06,0,.35-.06.7-.09,1-.9.37-4.37.48-6.35.22-.51-.34-.47-.87-.49-1.39-.02-.5.06-1.04-.4-1.47-.49.38-.97.72-1.43,1.1-2.74,2.24-5.88,3.33-9.41,3.03-2.37-.2-4.52-1.08-6.51-2.45-2.54-1.74-4.21-4.14-5.3-6.9-1.19-3.01-1.47-6.16-.75-9.38.45-2.01,1.17-3.9,2.37-5.57,2.1-2.93,4.74-5.09,8.37-5.94,3.98-.93,7.56-.08,10.95,2.03.56.35.91,1.04,1.73,1.07Zm-8.31,3.12c-.82.12-1.68.12-2.46.38-1.99.65-3.33,2.1-4.41,3.83-.86,1.38-.92,2.91-.97,4.49-.06,2.03.58,3.78,1.76,5.34,1.42,1.88,3.42,2.88,5.74,3.03,2.97.19,5.26-1.24,6.88-3.61,1.64-2.4,1.86-5.08,1.01-7.88-.89-2.97-4.12-5.84-7.55-5.58Z"/>
    <path class="cls-2" d="m362.91,55.81c.06-.88.12-1.78.19-2.75.35-.08.65-.2.95-.2,1.44-.02,2.87-.03,4.31,0,1.05.02,1.33.31,1.35,1.38.02,1.28,0,2.55,0,3.83,0,7.22,0,14.43,0,21.65,0,.59.11,1.21-.46,1.77h-5.99c-.59-.97.11-2.15-.55-3.18-.7.57-1.33,1.1-1.98,1.6-2.27,1.74-4.81,2.74-7.7,2.88-2.57.12-4.89-.62-7.07-1.86-2.29-1.31-4.02-3.2-5.31-5.52-1.47-2.65-2.15-5.48-2.04-8.49.15-3.73,1.35-7.05,3.83-9.93,2.3-2.66,5.17-4.21,8.57-4.77,1.99-.33,3.97-.05,5.9.56,1.81.57,3.5,1.34,4.83,2.74.32.34.35.31,1.17.3Zm-.82,11.09c-.14-2.7-1.21-5.2-3.79-6.9-1.22-.81-2.53-1.28-4.05-1.19-1.11.07-2.21,0-3.27.51-3.28,1.55-4.79,4.34-4.91,7.73-.11,3.18,1.19,5.91,4.08,7.61,2.57,1.51,5.23,1.63,7.8.04,2.75-1.71,4.03-4.29,4.12-7.8Z"/>
    <path class="cls-2" d="m288.09,81.25c-2.45.13-4.7.1-7.07.03-.04-.55-.1-1.01-.1-1.47,0-4.55-.04-9.09.01-13.63.02-2.04-.77-3.73-1.94-5.27-.75-.99-1.93-1.36-3.09-1.71-1.94-.59-3.83-.44-5.47.75-1.58,1.15-2.71,2.71-3.09,4.68-.18.89-.28,1.81-.29,2.72-.03,4.11-.01,8.21-.01,12.32,0,.47,0,.94,0,1.37-.94.36-5.44.42-6.83.12-.03-.31-.1-.65-.1-.99,0-8.69,0-17.38,0-26.07,0-.35.05-.7.09-1.17,2.09-.14,4.1-.05,6.23-.05.29,1.28.03,2.52.2,3.87.56-.56,1.03-1.07,1.54-1.53,1.32-1.19,2.77-2.22,4.53-2.56,3.78-.71,7.37-.34,10.53,2.13,1.11.87,2.1,1.82,2.94,2.94,1.29,1.72,1.94,3.64,1.94,5.78,0,5.42,0,10.84,0,16.27v1.48Z"/>
    <path class="cls-2" d="m182.37,53.14h6.74c.04.51.11.97.12,1.43,0,4.07-.03,8.14.02,12.2.02,1.84.3,3.68,1.24,5.3,1.03,1.76,2.58,2.84,4.61,3.29,1.67.38,3.2.09,4.55-.86,1.53-1.07,2.76-2.44,3.08-4.38.18-1.05.29-2.12.38-3.19.38-4.29.21-8.6.25-12.9,0-.23.05-.47.1-.84,2.21-.27,4.41-.06,6.68-.13.07.44.15.74.15,1.04,0,8.69,0,17.39,0,26.08,0,.31-.06.62-.11,1.04-2.06.16-4.08.05-6.15.06-.43-1.22,0-2.44-.32-3.72-.64.69-1.19,1.29-1.74,1.9-1.21,1.33-2.77,1.97-4.5,2.29-1.98.36-3.95.34-5.94,0-1.68-.28-3.02-1.2-4.34-2.16-1.57-1.14-2.82-2.58-3.64-4.34-.7-1.48-1.25-3.01-1.25-4.69,0-5.34,0-10.69,0-16.03,0-.43.04-.85.08-1.41Z"/>
    <path class="cls-2" d="m70.02,55.76c-1.42,1.72-2.61,3.4-4.14,4.94-.86-.44-1.66-.87-2.49-1.26-.86-.4-1.72-.85-2.63-1.11-1.55-.43-3.15-.39-4.73-.18-1.25.17-2.1,1.1-2.25,2.3-.16,1.21.35,2.09,1.6,2.63.54.23,1.13.41,1.72.48,2.21.28,4.43.45,6.63.79,1.67.26,3.15,1.07,4.51,2.09,1.25.94,2.19,2.12,2.55,3.64.81,3.47.02,7.67-3.3,10.18-2.28,1.72-4.77,2.44-7.56,2.5-2.08.04-4.15-.08-6.17-.53-3.17-.7-5.85-2.26-7.95-4.77-.05-.05-.04-.15-.08-.31,1.05-1.46,2.13-2.97,3.24-4.51.9.47,1.69.84,2.44,1.27,1.53.89,3.12,1.62,4.86,1.94,1.77.33,3.57.35,5.33-.1,2.07-.53,2.45-2.24,2.15-3.81-.18-.95-.97-1.4-1.8-1.56-2.22-.44-4.44-.89-6.71-1.07-2.67-.21-5-1.19-6.72-3.38-.67-.85-1.33-1.68-1.63-2.75-.62-2.18-.37-4.25.7-6.24,1.07-1.96,2.78-3.11,4.82-3.89,2.48-.95,5.06-1.19,7.65-.92,3.1.32,6.14.97,8.82,2.73.36.23.69.51,1.16.87Z"/>
    <path class="cls-2" d="m157.23,59.2c-.11-2.09-.15-4.1.03-6.18,1.76-.41,3.49.03,5.29-.3.04-.42.1-.84.1-1.27.01-1.64,0-3.27,0-4.91,0-.39.05-.78.08-1.29,2.26-.14,4.43-.08,6.74-.03.05.48.12.9.12,1.32.01,1.67,0,3.35,0,5.03,0,.4,0,.79,0,1.26,2.51.1,4.97-.12,7.36.12.38,1.01.42,4.99.06,6.23-.37.04-.79.12-1.21.13-1.6.02-3.19,0-4.79,0-.39,0-.78,0-1.28,0-.06.46-.13.8-.13,1.14,0,4.07-.02,8.14,0,12.2,0,1.65,1.05,2.66,2.7,2.69,1.12.02,2.23,0,3.35,0,.39,0,.78.04,1.23.06.83,1.94,1.43,3.89,1.93,5.99-.39.07-.7.16-1,.16-2.35.01-4.71.08-7.06-.02-1.18-.05-2.41-.24-3.49-.67-2.3-.91-4.01-2.43-4.14-5.16-.06-1.31-.2-2.62-.22-3.93-.03-3.03.01-6.06-.03-9.09-.01-1.06-.19-2.12-.31-3.26-1.76-.29-3.48.03-5.35-.23Z"/>
    <path class="cls-2" d="m85.9,59.38c-.03.52-.07.87-.07,1.22,0,3.87,0,7.74,0,11.6,0,.39.01.81.13,1.18.39,1.27,1.21,1.9,2.56,1.94,1.12.04,2.23,0,3.35.02.43,0,.86.04,1.38.07.73,1.92,1.3,3.84,1.92,5.92-.46.09-.78.22-1.11.22-2.39.02-4.79.09-7.18-.03-1.22-.06-2.46-.33-3.61-.73-1.37-.49-2.45-1.47-3.24-2.71-.57-.9-.55-1.98-.66-3-.51-4.69-.13-9.4-.24-14.09-.01-.47,0-.95,0-1.53-.44-.06-.78-.14-1.12-.14-1.08-.02-2.15,0-3.23-.01-.39,0-.77-.07-1.1-.1-.38-1.05-.4-5.04-.03-6.25,1.62-.28,3.33.03,5.13-.19.04-.47.1-.89.11-1.31.01-1.63,0-3.27,0-4.9,0-.39.04-.78.08-1.29,2.26-.14,4.43-.08,6.74-.03.05.48.12.89.12,1.31.01,1.67,0,3.35,0,5.02,0,.4,0,.79,0,1.26,2.51.1,4.96-.12,7.35.11.36.92.45,4.61.16,6.26-.38.03-.8.1-1.22.11-1.63.01-3.27,0-4.9,0-.39,0-.78.04-1.31.07Z"/>
    <path class="cls-2" d="m138.41,81.35c-1.15.31-5.88.29-6.97-.02-.04-.33-.13-.71-.13-1.09,0-8.7,0-17.39,0-26.09,0-.35.07-.7.1-.99.98-.38,5.18-.43,6.35-.1.39.47.22,1.06.25,1.6.02.51,0,1.02,0,1.76.59-.64,1.05-1.06,1.43-1.54,1.29-1.62,3.07-2.2,5.01-2.48,2.85-.41,5.54.11,8.06,1.49.24.13.49.28.71.44.16.12.28.28.4.41-.2.89-2.27,5.14-3.12,6.4-.22-.13-.45-.25-.66-.39-1.12-.77-2.28-1.45-3.63-1.78-2.39-.58-4.98.59-6.17,2.43-1.04,1.6-1.51,3.34-1.53,5.2-.05,4.47-.01,8.94-.02,13.4,0,.47-.05.93-.07,1.36Z"/>
    <path class="cls-2" d="m335.33,81.49c-2.38.17-4.71.04-7.14.08-.06-.47-.13-.81-.13-1.16,0-8.81,0-17.62,0-26.43,0-.31.06-.62.08-.9.96-.32,6.05-.34,7.14-.06.24.86.31,26.83.05,28.46Z"/>
    <path class="cls-2" d="m255.87,81.25c-2.3.13-4.55.09-6.9.03-.05-.41-.13-.75-.13-1.1,0-8.73,0-17.46,0-26.19,0-.31.05-.62.08-.9.94-.32,5.79-.35,6.9-.07.24.85.32,26.53.05,28.23Z"/>
    <path class="cls-2" d="m252.29,40.63c2.31-.23,4.49,1.97,4.39,4.34-.09,2.34-1.96,4.17-4.25,4.23-2.59.07-4.4-2.26-4.34-4.31.07-2.45,1.8-4.26,4.19-4.26Z"/>
    <path class="cls-2" d="m327.58,44.99c-.3-2.45,2.18-4.46,4.04-4.39,2.53.1,4.27,1.78,4.36,4.24.09,2.33-1.8,4.31-4.16,4.34-2.54.04-4.53-2.13-4.24-4.2Z"/>
  </g>
</svg>