<svg width="18" height="19" viewBox="0 0 18 19" fill="none" xmlns="http://www.w3.org/2000/svg">
<path d="M13.88 6.15202C13.88 4.78562 13.3372 3.47518 12.3711 2.50899C11.4049 1.5428 10.0944 1 8.72803 1C7.36163 1 6.05119 1.5428 5.085 2.50899C4.11881 3.47518 3.57601 4.78562 3.57601 6.15202C3.57601 12.1627 1 13.88 1 13.88H16.4561C16.4561 13.88 13.88 12.1627 13.88 6.15202Z" stroke="#E1FF26" stroke-width="1.5" stroke-linecap="round" stroke-linejoin="round"/>
<path d="M10.2122 17.3154C10.0612 17.5757 9.84456 17.7917 9.58386 17.9419C9.32315 18.092 9.02757 18.1711 8.72671 18.1711C8.42585 18.1711 8.13027 18.092 7.86956 17.9419C7.60886 17.7917 7.39217 17.5757 7.24121 17.3154" stroke="#E1FF26" stroke-width="1.5" stroke-linecap="round" stroke-linejoin="round"/>
</svg>
