<svg width="18" height="20" viewBox="0 0 18 20" fill="none" xmlns="http://www.w3.org/2000/svg">
<path d="M14.424 6.25163C14.424 4.88523 13.8812 3.57479 12.915 2.6086C11.9488 1.64241 10.6384 1.09961 9.27197 1.09961C7.90557 1.09961 6.59514 1.64241 5.62895 2.6086C4.66275 3.57479 4.11995 4.88523 4.11995 6.25163C4.11995 12.2623 1.54395 13.9797 1.54395 13.9797H17C17 13.9797 14.424 12.2623 14.424 6.25163Z" stroke="#FFF5D9" stroke-width="1.5" stroke-linecap="round" stroke-linejoin="round"/>
<path d="M10.7562 17.415C10.6052 17.6753 10.3885 17.8913 10.1278 18.0415C9.86709 18.1916 9.57151 18.2707 9.27065 18.2707C8.96979 18.2707 8.67421 18.1916 8.41351 18.0415C8.1528 17.8913 7.93612 17.6753 7.78516 17.415" stroke="#FFF5D9" stroke-width="1.5" stroke-linecap="round" stroke-linejoin="round"/>
</svg>
