<svg width="32" height="17" viewBox="0 0 32 17" fill="none" xmlns="http://www.w3.org/2000/svg">
<circle cx="16" cy="4" r="3.5" stroke="#E1FF26"/>
<path d="M23.5 13C23.5 13.8132 22.8278 14.6839 21.4332 15.3812C20.0686 16.0635 18.1483 16.5 16 16.5C13.8517 16.5 11.9314 16.0635 10.5668 15.3812C9.17219 14.6839 8.5 13.8132 8.5 13C8.5 12.1868 9.17219 11.3161 10.5668 10.6188C11.9314 9.93646 13.8517 9.5 16 9.5C18.1483 9.5 20.0686 9.93646 21.4332 10.6188C22.8278 11.3161 23.5 12.1868 23.5 13Z" stroke="#E1FF26"/>
<circle cx="7" cy="5" r="2.75" stroke="#E1FF26" stroke-width="0.5"/>
<path d="M11.5 10.0156C10.4006 9.39282 8.79204 9 7 9C3.68629 9 1 10.3431 1 12C1 13.6569 3.68629 15 7 15C7.89221 15 8.73894 14.9026 9.5 14.728" stroke="#E1FF26" stroke-width="0.5"/>
<circle cx="25" cy="5" r="2.75" stroke="#E1FF26" stroke-width="0.5"/>
<path d="M22.5 14.728C23.2611 14.9026 24.1078 15 25 15C28.3137 15 31 13.6569 31 12C31 10.3431 28.3137 9 25 9C23.1155 9 21.434 9.43439 20.334 10.1138" stroke="#E1FF26" stroke-width="0.5"/>
</svg>
