<svg width="13" height="13" viewBox="0 0 13 13" fill="none" xmlns="http://www.w3.org/2000/svg">
<path d="M4.875 0.8125C4.65951 0.8125 4.45285 0.898102 4.30048 1.05048C4.1481 1.20285 4.0625 1.40951 4.0625 1.625V2.03125C4.0625 2.13899 4.0197 2.24233 3.94351 2.31851C3.86733 2.3947 3.76399 2.4375 3.65625 2.4375C3.54851 2.4375 3.44517 2.3947 3.36899 2.31851C3.2928 2.24233 3.25 2.13899 3.25 2.03125V1.625C3.25 1.19402 3.4212 0.780698 3.72595 0.475951C4.0307 0.171205 4.44402 0 4.875 0H5.28125C5.38899 0 5.49233 0.0428013 5.56851 0.118988C5.6447 0.195175 5.6875 0.298506 5.6875 0.40625C5.6875 0.513994 5.6447 0.617325 5.56851 0.693512C5.49233 0.769699 5.38899 0.8125 5.28125 0.8125H4.875ZM4.0625 8.125C4.0625 8.34049 4.1481 8.54715 4.30048 8.69952C4.45285 8.8519 4.65951 8.9375 4.875 8.9375H5.28125C5.38899 8.9375 5.49233 8.9803 5.56851 9.05649C5.6447 9.13267 5.6875 9.23601 5.6875 9.34375C5.6875 9.45149 5.6447 9.55483 5.56851 9.63101C5.49233 9.7072 5.38899 9.75 5.28125 9.75H4.875C4.44402 9.75 4.0307 9.57879 3.72595 9.27405C3.4212 8.9693 3.25 8.55598 3.25 8.125V7.71875C3.25 7.61101 3.2928 7.50767 3.36899 7.43149C3.44517 7.3553 3.54851 7.3125 3.65625 7.3125C3.76399 7.3125 3.86733 7.3553 3.94351 7.43149C4.0197 7.50767 4.0625 7.61101 4.0625 7.71875V8.125ZM4.0625 3.65625C4.0625 3.54851 4.0197 3.44517 3.94351 3.36899C3.86733 3.2928 3.76399 3.25 3.65625 3.25C3.54851 3.25 3.44517 3.2928 3.36899 3.36899C3.2928 3.44517 3.25 3.54851 3.25 3.65625V6.09375C3.25 6.20149 3.2928 6.30483 3.36899 6.38101C3.44517 6.4572 3.54851 6.5 3.65625 6.5C3.76399 6.5 3.86733 6.4572 3.94351 6.38101C4.0197 6.30483 4.0625 6.20149 4.0625 6.09375V3.65625ZM11.375 0.8125C11.5905 0.8125 11.7972 0.898102 11.9495 1.05048C12.1019 1.20285 12.1875 1.40951 12.1875 1.625V2.03125C12.1875 2.13899 12.2303 2.24233 12.3065 2.31851C12.3827 2.3947 12.486 2.4375 12.5938 2.4375C12.7015 2.4375 12.8048 2.3947 12.881 2.31851C12.9572 2.24233 13 2.13899 13 2.03125V1.625C13 1.19402 12.8288 0.780698 12.524 0.475951C12.2193 0.171205 11.806 0 11.375 0H10.9688C10.861 0 10.7577 0.0428013 10.6815 0.118988C10.6053 0.195175 10.5625 0.298506 10.5625 0.40625C10.5625 0.513994 10.6053 0.617325 10.6815 0.693512C10.7577 0.769699 10.861 0.8125 10.9688 0.8125H11.375ZM11.375 8.9375C11.5905 8.9375 11.7972 8.8519 11.9495 8.69952C12.1019 8.54715 12.1875 8.34049 12.1875 8.125V7.71875C12.1875 7.61101 12.2303 7.50767 12.3065 7.43149C12.3827 7.3553 12.486 7.3125 12.5938 7.3125C12.7015 7.3125 12.8048 7.3553 12.881 7.43149C12.9572 7.50767 13 7.61101 13 7.71875V8.125C13 8.55598 12.8288 8.9693 12.524 9.27405C12.2193 9.57879 11.806 9.75 11.375 9.75H10.9688C10.861 9.75 10.7577 9.7072 10.6815 9.63101C10.6053 9.55483 10.5625 9.45149 10.5625 9.34375C10.5625 9.23601 10.6053 9.13267 10.6815 9.05649C10.7577 8.9803 10.861 8.9375 10.9688 8.9375H11.375ZM12.5938 3.25C12.486 3.25 12.3827 3.2928 12.3065 3.36899C12.2303 3.44517 12.1875 3.54851 12.1875 3.65625V6.09375C12.1875 6.20149 12.2303 6.30483 12.3065 6.38101C12.3827 6.4572 12.486 6.5 12.5938 6.5C12.7015 6.5 12.8048 6.4572 12.881 6.38101C12.9572 6.30483 13 6.20149 13 6.09375V3.65625C13 3.54851 12.9572 3.44517 12.881 3.36899C12.8048 3.2928 12.7015 3.25 12.5938 3.25ZM6.90625 0C6.79851 0 6.69517 0.0428013 6.61899 0.118988C6.5428 0.195175 6.5 0.298506 6.5 0.40625C6.5 0.513994 6.5428 0.617325 6.61899 0.693512C6.69517 0.769699 6.79851 0.8125 6.90625 0.8125H9.34375C9.45149 0.8125 9.55483 0.769699 9.63101 0.693512C9.7072 0.617325 9.75 0.513994 9.75 0.40625C9.75 0.298506 9.7072 0.195175 9.63101 0.118988C9.55483 0.0428013 9.45149 0 9.34375 0H6.90625ZM6.5 9.34375C6.5 9.23601 6.5428 9.13267 6.61899 9.05649C6.69517 8.9803 6.79851 8.9375 6.90625 8.9375H9.34375C9.45149 8.9375 9.55483 8.9803 9.63101 9.05649C9.7072 9.13267 9.75 9.23601 9.75 9.34375C9.75 9.45149 9.7072 9.55483 9.63101 9.63101C9.55483 9.7072 9.45149 9.75 9.34375 9.75H6.90625C6.79851 9.75 6.69517 9.7072 6.61899 9.63101C6.5428 9.55483 6.5 9.45149 6.5 9.34375ZM1.625 3.25H2.4375V8.53125C2.4375 9.06997 2.65151 9.58663 3.03244 9.96756C3.41337 10.3485 3.93003 10.5625 4.46875 10.5625H9.75V11.375C9.75 11.806 9.57879 12.2193 9.27405 12.524C8.9693 12.8288 8.55598 13 8.125 13H2.84375C2.08954 13 1.36622 12.7004 0.832915 12.1671C0.299608 11.6338 0 10.9105 0 10.1562V4.875C0 4.44402 0.171205 4.0307 0.475951 3.72595C0.780698 3.4212 1.19402 3.25 1.625 3.25Z" fill="#4E4E4E"/>
</svg>
