<svg width="17" height="17" viewBox="0 0 17 17" fill="none" xmlns="http://www.w3.org/2000/svg">
<path d="M12.6932 17C11.9934 17.0002 11.3057 16.818 10.6983 16.4713L10.6126 16.4231C6.66289 14.1679 3.35851 10.9395 1.01513 7.04623L0.568406 6.30305C0.110864 5.54327 -0.0787318 4.65249 0.029832 3.77266C0.138396 2.89283 0.538872 2.07459 1.16744 1.44834L2.05749 0.559925C2.80543 -0.186642 4.02186 -0.186642 4.76912 0.559925L6.73008 2.51729C7.0252 2.81325 7.21565 3.19716 7.27258 3.61085C7.32951 4.02455 7.24982 4.44549 7.04558 4.80992L6.30852 6.11641C6.29303 6.1439 6.28697 6.17569 6.29126 6.20694C6.29556 6.23819 6.30998 6.26717 6.33231 6.28948L10.6983 10.6474C10.721 10.6696 10.7503 10.6838 10.7818 10.688C10.8133 10.6922 10.8453 10.686 10.873 10.6705L12.1799 9.93544L12.1805 9.93476C12.5457 9.73112 12.9674 9.6517 13.3818 9.70852C13.7962 9.76533 14.1808 9.9553 14.4774 10.2497L16.439 12.2084C17.187 12.955 17.187 14.1691 16.439 14.915L15.5096 15.8421C15.1394 16.2104 14.7001 16.5022 14.2169 16.7009C13.7336 16.8996 13.2159 17.0012 12.6932 17ZM3.4133 1.35739C3.27051 1.35739 3.12773 1.41169 3.01893 1.52028L2.12888 2.40802C1.71518 2.82021 1.4516 3.35876 1.38013 3.93784C1.30866 4.51692 1.43341 5.10322 1.73451 5.60332L2.18124 6.34649C4.40409 10.0398 7.53848 13.1025 11.285 15.2422L11.3707 15.2904C12.4083 15.8829 13.7138 15.7152 14.5474 14.8818L15.4769 13.9547C15.5287 13.903 15.5698 13.8416 15.5979 13.7741C15.6259 13.7065 15.6403 13.6341 15.6403 13.561C15.6403 13.4879 15.6259 13.4155 15.5979 13.348C15.5698 13.2804 15.5287 13.2191 15.4769 13.1674L13.5153 11.2087C13.4289 11.123 13.317 11.0678 13.1964 11.0514C13.0757 11.035 12.953 11.0583 12.8469 11.1177L11.54 11.8528C11.2535 12.0129 10.9225 12.0755 10.5971 12.031C10.2717 11.9866 9.96971 11.8375 9.73681 11.6064L5.37087 7.24848C5.1391 7.01629 4.98959 6.71494 4.94504 6.3902C4.90049 6.06546 4.96334 5.73509 5.12405 5.44925L5.86111 4.14344C5.92033 4.03745 5.9434 3.91511 5.92684 3.79488C5.91028 3.67466 5.85499 3.56307 5.76932 3.47696L3.80767 1.52028C3.75592 1.46855 3.69444 1.42753 3.62676 1.39958C3.55909 1.37162 3.48655 1.35729 3.4133 1.35739Z" fill="#415B5E"/>
</svg>
