<svg version="1.2" xmlns="http://www.w3.org/2000/svg" viewBox="0 0 1215 456" width="1215" height="456"><defs><filter x="-50%" y="-50%" width="200%" height="200%" id="f1"> <feGaussianBlur stdDeviation="150"/> </filter><filter x="-50%" y="-50%" width="200%" height="200%" id="f2"> <feGaussianBlur stdDeviation="7"/> </filter><linearGradient id="P" gradientUnits="userSpaceOnUse"/><linearGradient id="g1" x2="1" href="#P" gradientTransform="matrix(874.5,0,0,70.437,190,367.5)"><stop stop-color="#131515"/><stop offset=".47" stop-color="#fff5d9"/><stop offset="1" stop-color="#131515"/></linearGradient><linearGradient id="g2" x2="1" href="#P" gradientTransform="matrix(874.5,0,0,129.473,187,367.5)"><stop stop-color="#131515"/><stop offset=".47" stop-color="#fff5d9"/><stop offset="1" stop-color="#131515"/></linearGradient><filter x="-50%" y="-50%" width="200%" height="200%" id="f3"> <feGaussianBlur stdDeviation="5.7"/> </filter><filter x="-50%" y="-50%" width="200%" height="200%" id="f4"> <feGaussianBlur stdDeviation="3.8"/> </filter><filter x="-50%" y="-50%" width="200%" height="200%" id="f5"> <feGaussianBlur stdDeviation="2.3"/> </filter><filter x="-50%" y="-50%" width="200%" height="200%" id="f6"> <feGaussianBlur stdDeviation="1"/> </filter></defs><style>.a{opacity:.3;filter:url(#f1);fill:#00fb87}.b{filter:url(#f2);fill:none;stroke:url(#g1);stroke-width:4}.c{fill:none;stroke:url(#g2);stroke-width:2}.d{opacity:.2;filter:url(#f3);fill:#e1ff26}.e{opacity:.5;filter:url(#f4);fill:#e1ff26}.f{filter:url(#f5);fill:#fff5d9}.g{filter:url(#f6);fill:#fff5d9}</style><path class="a" d="m899 450.5c0-72.5-30.6-142.1-85.1-193.4-54.5-51.3-128.4-80.1-205.4-80.1-77 0-150.9 28.8-205.4 80.1-54.5 51.3-85.1 120.9-85.1 193.4h290.5z"/><path class="b" d="m1044 336.5c-108-34.7-262.9-56.5-435-56.5-199.2 0-375.4 29.2-482.5 73.9"/><path class="c" d="m1197 455c0-96.6-264.6-175-591-175-326.4 0-591 78.4-591 175"/><path class="d" d="m655 280c0 0-8.8 4.6-14.6 8.3-8.5 5.3-16.7 13.7-31.9 13.7-16.9 0-21.1-6-29.2-12.4-4.2-3.3-17.3-9.6-17.3-9.6 0 0 12.2-6.1 17.3-9.6 8.3-5.8 13.2-12.4 29.2-12.4 15.2 0 23.4 8.4 31.9 13.8 5.8 3.6 14.6 8.2 14.6 8.2z"/><path class="e" d="m636 280c0 0-5.2 2.7-8.6 4.9-5.1 3.1-9.9 8.1-18.9 8.1-10 0-12.5-3.5-17.3-7.3-2.5-2-10.2-5.7-10.2-5.7 0 0 7.2-3.6 10.2-5.7 5-3.4 7.8-7.3 17.3-7.3 9 0 13.8 5 18.9 8.1 3.4 2.2 8.6 4.9 8.6 4.9z"/><path class="f" d="m624 280c0 0-2.9 1.5-4.9 2.6-2.8 1.7-5.5 4.4-10.6 4.4-5.6 0-7-1.9-9.7-3.9-1.4-1.1-5.8-3.1-5.8-3.1 0 0 4.1-1.9 5.8-3.1 2.7-1.8 4.4-3.9 9.7-3.9 5.1 0 7.8 2.7 10.6 4.4 2 1.1 4.9 2.6 4.9 2.6z"/><path class="g" d="m608.5 282c-2.5 0-4.5-0.9-4.5-2 0-1.1 2-2 4.5-2 2.5 0 4.5 0.9 4.5 2 0 1.1-2 2-4.5 2z"/><path fill-rule="evenodd" d="m1215 457v140h-1215v-146h2.3c11-93.9 278.2-169 606.2-169 328 0 595.2 75.1 606.2 169h0.3z"/></svg>