<svg width="528" height="285" viewBox="0 0 528 285" fill="none" xmlns="http://www.w3.org/2000/svg">
<path d="M86 209.5L85.9999 193.084L85.9999 178.64L85.9999 112.335L85.9999 91.251L85.9999 0" stroke="url(#paint0_linear_2291_23893)" stroke-dasharray="5 5"/>
<path d="M0 85.9999L91.9163 85.9999L106.36 85.9999L172.665 85.9999L193.749 85.9999L527.5 86" stroke="url(#paint1_linear_2291_23893)" stroke-dasharray="5 5"/>
<path d="M0 186L91.9163 186L106.36 186L172.665 186L193.749 186L527.5 186" stroke="url(#paint2_linear_2291_23893)" stroke-dasharray="5 5"/>
<path d="M476 285L476 193.084L476 178.64L476 112.335L476 91.251L476 75.5" stroke="url(#paint3_linear_2291_23893)" stroke-dasharray="5 5"/>
<rect x="81" y="82" width="9" height="9" fill="#FFFBD9"/>
<rect x="82" y="83" width="7" height="7" stroke="white" stroke-opacity="0.34" stroke-width="2"/>
<rect x="472" y="82" width="9" height="9" fill="#FFFBD9"/>
<rect x="473" y="83" width="7" height="7" stroke="white" stroke-opacity="0.34" stroke-width="2"/>
<rect x="81" y="182" width="9" height="9" fill="#FFFBD9"/>
<rect x="82" y="183" width="7" height="7" stroke="white" stroke-opacity="0.34" stroke-width="2"/>
<rect x="472" y="182" width="9" height="9" fill="#FFFBD9"/>
<rect x="473" y="183" width="7" height="7" stroke="white" stroke-opacity="0.34" stroke-width="2"/>
<defs>
<linearGradient id="paint0_linear_2291_23893" x1="83.0717" y1="253.052" x2="83.0717" y2="33.5458" gradientUnits="userSpaceOnUse">
<stop stop-color="#00FB87" stop-opacity="0"/>
<stop offset="0.19" stop-color="#00E57B" stop-opacity="0.22"/>
<stop offset="0.42" stop-color="#E1FF26"/>
<stop offset="0.7" stop-color="#E1FF26"/>
<stop offset="1" stop-color="#E1FF26" stop-opacity="0"/>
</linearGradient>
<linearGradient id="paint1_linear_2291_23893" x1="31.9482" y1="83.0717" x2="519.5" y2="83.0717" gradientUnits="userSpaceOnUse">
<stop offset="0.00957768" stop-color="#00FB87" stop-opacity="0"/>
<stop offset="0.118424" stop-color="#00E57B" stop-opacity="0.22"/>
<stop offset="0.42" stop-color="#E1FF26"/>
<stop offset="0.7" stop-color="#E1FF26"/>
<stop offset="1" stop-color="#E1FF26" stop-opacity="0"/>
</linearGradient>
<linearGradient id="paint2_linear_2291_23893" x1="31.9482" y1="183.072" x2="519.5" y2="183.072" gradientUnits="userSpaceOnUse">
<stop offset="0.00957768" stop-color="#00FB87" stop-opacity="0"/>
<stop offset="0.118424" stop-color="#00E57B" stop-opacity="0.22"/>
<stop offset="0.42" stop-color="#E1FF26"/>
<stop offset="0.7" stop-color="#E1FF26"/>
<stop offset="1" stop-color="#E1FF26" stop-opacity="0"/>
</linearGradient>
<linearGradient id="paint3_linear_2291_23893" x1="473.072" y1="253.052" x2="473.072" y2="33.5458" gradientUnits="userSpaceOnUse">
<stop stop-color="#00FB87" stop-opacity="0"/>
<stop offset="0.19" stop-color="#00E57B" stop-opacity="0.22"/>
<stop offset="0.42" stop-color="#E1FF26"/>
<stop offset="0.7" stop-color="#E1FF26"/>
<stop offset="1" stop-color="#E1FF26" stop-opacity="0"/>
</linearGradient>
</defs>
</svg>
