<svg width="52" height="51" viewBox="0 0 52 51" fill="none" xmlns="http://www.w3.org/2000/svg">
<path d="M34.5593 16.2292C34.1809 15.8278 33.8394 15.4678 33.4795 15.0894H35.2376C35.5191 14.5864 35.8098 14.1111 36.0637 13.6127C37.1573 11.4531 38.2464 9.29341 39.317 7.1199C39.8569 6.02623 40.3138 4.90026 40.6737 3.73275C40.7475 3.49279 40.8029 3.2436 40.8583 2.99902C40.8767 2.9298 40.8814 2.86058 40.886 2.79136C40.9367 2.00225 40.406 1.51772 39.6169 1.64693C39.1093 1.72999 38.6848 1.97457 38.4079 2.40834C38.0526 2.9621 37.6788 3.51125 37.4158 4.10654C36.419 6.38618 35.4453 8.67966 34.4947 10.9778C33.1195 14.3003 31.6105 17.5629 30.0831 20.8162C29.4186 22.2329 28.7771 23.6634 28.0942 25.0755C27.4943 26.3122 26.8113 27.4982 25.9576 28.5827C25.3807 29.3118 24.7439 29.9763 23.9133 30.4285C22.8519 31.0053 21.8182 30.8669 20.9322 30.064C20.3092 29.4963 20.2308 28.7903 20.3415 28.0243C20.4615 27.1983 20.7753 26.4368 21.126 25.6893C21.9567 23.9403 23.0042 22.316 23.9548 20.6362C24.5686 19.5518 25.1362 18.4443 25.7222 17.346C25.8561 17.0922 25.9253 16.8245 25.8607 16.5384C25.8099 16.3215 25.7222 16.1415 25.473 16.0908C25.2054 16.1231 25.0116 16.2984 24.8593 16.4969C24.6055 16.8291 24.3378 17.166 24.1579 17.5398C23.138 19.6764 21.8828 21.6837 20.7199 23.7419C20.0324 24.9601 19.3263 26.1692 18.5972 27.3644C18.0988 28.1766 17.5081 28.9287 16.8159 29.5886C16.516 29.8748 16.1791 30.1378 15.8284 30.3593C15.1593 30.7838 14.4302 30.7931 13.6872 30.5716C13.2627 30.447 12.9858 30.1747 12.8381 29.7686C12.5059 28.8457 12.492 27.9181 12.9119 27.0321C13.2673 26.2753 13.6918 25.5462 14.1118 24.8217C14.804 23.6219 15.5238 22.4405 16.2114 21.2361C16.7606 20.2763 17.2082 19.2657 17.5081 18.1951C17.5358 18.1028 17.5635 18.0059 17.582 17.909C17.7112 17.3737 17.5774 16.9307 17.1667 16.543C16.3545 15.7724 15.4085 15.6939 14.3933 15.9616C13.7703 16.1231 13.2396 16.4507 12.7689 16.8891C11.5368 18.0428 10.4523 19.321 9.48787 20.7008C8.09886 22.6851 6.75139 24.6971 5.36699 26.6814C4.77632 27.5305 4.14411 28.3519 3.50267 29.1641C3.14273 29.6209 2.67204 29.9578 2.11366 30.147C1.85063 30.2347 1.56913 30.2993 1.29687 30.3085C0.812329 30.3224 0.433928 30.1009 0.198581 29.6671C-0.0598393 29.1964 -0.0367657 28.7026 0.101674 28.1996C0.300104 27.5074 0.590826 26.866 0.987686 26.2615C2.74587 23.6173 4.50405 20.9685 6.24839 18.3151C6.55295 17.849 6.82983 17.3598 7.07903 16.8568C7.259 16.4969 7.39282 16.1046 7.23592 15.6985C7.03749 15.5001 6.80676 15.454 6.5668 15.5463C6.29453 15.6524 6.02227 15.7631 5.77308 15.92C5.1178 16.3307 4.55481 16.8614 4.0149 17.406C3.5119 17.9136 3.02275 18.4304 2.5336 18.9519C2.3444 19.1549 2.13673 19.2472 1.86908 19.1641C1.63374 18.9611 1.75372 18.7811 1.88754 18.6104C2.5659 17.7567 3.22118 16.8799 3.93645 16.0539C4.31485 15.6109 4.77631 15.2325 5.23316 14.8679C5.75462 14.4526 6.35914 14.1988 7.02826 14.1111C7.56818 14.0419 8.08964 14.1203 8.59725 14.2911C8.92951 14.4018 9.1187 14.651 9.19254 14.9925C9.30329 15.5186 9.22484 16.0262 9.03564 16.5153C8.91105 16.8384 8.74953 17.1568 8.56033 17.4475C7.15286 19.5702 5.74539 21.693 4.31023 23.7973C3.56266 24.8955 2.75971 25.9569 1.97522 27.0275C1.70296 27.4013 1.43992 27.7843 1.35686 28.2504C1.30148 28.5642 1.32917 28.8595 1.57375 29.1041C1.85062 29.141 2.03983 28.9795 2.20134 28.8134C2.61204 28.3934 3.00429 27.9597 3.3873 27.5121C3.61342 27.249 3.81185 26.9583 4.01028 26.6676C5.69925 24.1572 7.53588 21.7576 9.34021 19.3303C9.88474 18.6012 10.42 17.8674 10.983 17.1522C11.7444 16.1785 12.6904 15.4263 13.798 14.8725C15.1039 14.2219 16.4145 14.2634 17.725 14.8448C18.5326 15.2002 18.9479 15.8462 19.0171 16.7092C19.1187 17.969 18.9064 19.1595 18.2096 20.244C16.8113 22.4267 15.63 24.7294 14.4256 27.0229C14.2963 27.2675 14.1994 27.5351 14.1256 27.8028C14.0748 27.9874 14.0518 28.1904 14.0656 28.3796C14.0979 28.9103 14.4117 29.1918 14.9378 29.1826C15.4177 29.1733 15.8376 28.9887 16.2114 28.698C16.7606 28.2689 17.1759 27.7197 17.5266 27.129C19.1602 24.3741 20.7892 21.6145 22.4089 18.8504C22.8842 18.0428 23.318 17.2121 23.8025 16.4092C24.0979 15.9154 24.4947 15.4955 24.97 15.1586C25.3161 14.9094 25.6899 14.7341 26.1329 14.7295C27.0697 14.7295 27.6696 15.4309 27.5265 16.3584C27.4389 16.9399 27.2035 17.4613 26.9128 17.9551C25.7499 19.9163 24.5778 21.8729 23.4057 23.8296C22.9811 24.5356 22.5473 25.2416 22.1274 25.9477C21.7352 26.6076 21.4537 27.3044 21.5137 28.0889C21.5275 28.2689 21.5552 28.4534 21.6198 28.6196C21.869 29.2887 22.492 29.6071 23.1749 29.3902C23.4241 29.3118 23.6549 29.1687 23.8717 29.021C24.6332 28.4996 25.2192 27.8074 25.7407 27.0552C26.6775 25.7031 27.4066 24.2403 28.0942 22.7497C29.1555 20.4516 30.1523 18.1212 31.2598 15.8462C32.3304 13.6404 33.1657 11.3377 34.0563 9.06267C34.6147 7.62752 35.1453 6.18313 35.7176 4.7572C36.2206 3.52048 36.8804 2.36681 37.7711 1.36082C38.0295 1.0701 38.3202 0.797831 38.6294 0.562484C39.6954 -0.245081 40.909 -0.0881817 41.8274 0.437889C42.2611 0.68708 42.4688 1.08855 42.538 1.57309C42.6349 2.26529 42.5103 2.93903 42.3119 3.59892C41.975 4.74336 41.5043 5.83703 40.9736 6.8984C39.9861 8.87347 38.957 10.8301 37.9464 12.7959C37.5957 13.4789 37.2496 14.1665 36.8989 14.8541C36.8758 14.9002 36.862 14.9556 36.8343 15.0386H39.2293C39.3308 14.8956 39.4462 14.7387 39.5477 14.5772C40.8121 12.6252 42.0673 10.6732 43.3317 8.7258C44.5638 6.8338 45.9206 5.03408 47.4342 3.36358C48.0294 2.70368 48.7724 2.28836 49.6723 2.26529C50.4614 2.24683 51.1674 2.47756 51.6289 3.18361C51.9104 3.61277 51.9981 4.08346 51.8919 4.58646C51.735 5.30635 51.4305 5.96624 51.0659 6.59845C50.3645 7.81672 49.4969 8.915 48.5786 9.97176C47.3142 11.43 46.0267 12.8698 44.753 14.3234C44.5777 14.5218 44.4162 14.7295 44.2131 14.9787H47.8218C45.7683 17.7105 43.7609 20.387 41.7166 23.1097C40.9967 22.4221 40.2999 21.7576 39.5708 21.0608C39.46 21.1992 39.3631 21.31 39.2801 21.4299C38.6432 22.3667 37.9972 23.2989 37.3788 24.2495C36.7097 25.2786 36.2021 26.3815 35.9206 27.5767C35.6853 28.5642 36.1606 29.3302 37.1481 29.561C37.3604 29.6117 37.5542 29.5979 37.7665 29.5287C38.7217 29.2149 39.5846 28.7303 40.4014 28.1581C41.5182 27.3782 42.5334 26.4784 43.4656 25.4862C44.2454 24.6602 45.0069 23.8203 45.759 22.9758C46.0267 22.6759 46.2667 22.3436 46.5066 22.0206C46.8343 21.5776 47.1757 21.1577 47.6326 20.8439C47.8126 20.7193 47.9971 20.5808 48.2417 20.6408C48.4032 20.8439 48.2971 21.0285 48.2048 21.1946C47.9002 21.7437 47.5957 22.2975 47.2588 22.8282C46.059 24.711 44.5639 26.3307 42.861 27.7612C42.1319 28.375 41.3797 28.9564 40.6229 29.5333C39.82 30.1424 38.9063 30.5577 37.9464 30.8069C36.8666 31.0884 35.8422 30.8161 35.03 30.0409C34.4162 29.4594 34.2778 28.6703 34.4439 27.8628C34.5547 27.3321 34.7485 26.8152 34.9608 26.3169C35.5791 24.8679 36.4374 23.5573 37.3373 22.2698C37.7942 21.6145 38.2695 20.9777 38.7263 20.3455C38.4494 20.0409 38.1818 19.7456 37.8772 19.4133C37.7572 19.6072 37.6603 19.7548 37.568 19.9071C36.3452 21.8176 35.2515 23.8019 34.1624 25.7908C33.6502 26.7229 33.1057 27.6366 32.6257 28.5873C31.7674 30.2901 31.1029 32.0759 30.4522 33.8618C29.1971 37.2905 27.928 40.7146 26.5113 44.0787C25.7361 45.9291 24.8131 47.7011 23.5626 49.2886C23.0688 49.9162 22.515 50.4607 21.7629 50.7561C20.6969 51.176 19.6724 51.0375 18.7033 50.4653C18.205 50.17 17.8958 49.7039 17.6881 49.1686C17.1713 47.8442 17.1205 46.5013 17.5358 45.14C18.4357 42.1959 19.6401 39.3948 21.2183 36.746C23.0042 33.7511 24.9793 30.8808 26.9589 28.0151C29.3863 24.5033 31.7397 20.9454 33.9086 17.2629C34.107 16.926 34.3147 16.5938 34.5362 16.2292H34.5593ZM35.6714 17.2998C35.4638 17.6598 35.293 17.9782 35.0992 18.2827C34.1532 19.7548 33.2026 21.2223 32.2566 22.6944C31.7259 23.5158 31.2367 24.3695 30.6691 25.1678C28.6756 27.9735 26.6359 30.7469 24.6609 33.5665C23.0965 35.8046 21.689 38.1396 20.6507 40.6823C20.2539 41.6513 19.8155 42.6066 19.4232 43.5803C19.0125 44.6001 18.7356 45.6522 18.7956 46.7644C18.8279 47.3827 18.9248 47.9919 19.234 48.541C19.6632 49.3117 20.3923 49.5655 21.1999 49.2009C21.5044 49.0671 21.7859 48.8733 22.049 48.6702C22.7781 48.1119 23.3503 47.4012 23.8487 46.6398C24.7808 45.2139 25.4361 43.6541 26.0314 42.0667C26.7882 40.0501 27.5219 38.0242 28.3018 36.0169C29.3078 33.4188 30.383 30.8531 31.5782 28.3381C33.0134 25.3293 34.6516 22.4313 36.3959 19.5933C36.599 19.2611 36.802 18.9288 37.0097 18.5827C36.5667 18.1582 36.1421 17.7521 35.6714 17.2998ZM42.7318 15.011C42.8241 14.891 42.9072 14.7848 42.9903 14.6741C44.0655 13.2251 45.1176 11.7622 46.2713 10.3732C47.2819 9.15958 48.274 7.92747 49.2293 6.67228C49.6169 6.16467 49.8984 5.57861 50.1983 5.01101C50.3045 4.80796 50.3552 4.56339 50.3829 4.33265C50.4198 3.99578 50.3183 3.88503 49.9861 3.80658C49.4 3.66814 48.9016 3.8758 48.4771 4.24498C48.1633 4.51724 47.8679 4.82642 47.6095 5.14945C46.9681 5.94317 46.3497 6.75535 45.7267 7.56291C43.9409 9.87947 42.4226 12.3806 40.8029 14.8125C40.7706 14.8633 40.7568 14.9279 40.7198 15.0156H42.7272L42.7318 15.011Z" fill="#FCFCD8"/>
<path d="M26.276 13.6543C24.2594 13.6819 22.2336 12.2653 21.6752 9.99484C21.1999 8.0613 21.6752 6.35849 23.1381 4.98333C25.0439 3.20207 28.0619 3.37743 29.7786 5.34327C31.5137 7.32757 31.4814 10.2671 29.677 12.1776C28.7587 13.1466 27.6143 13.6358 26.276 13.6496V13.6543Z" fill="#FF3838"/>
</svg>
