<svg width="49" height="49" viewBox="0 0 49 49" fill="none" xmlns="http://www.w3.org/2000/svg">
<path d="M10.0704 48.1189L0.189514 23.5602C0.0704076 23.2642 0.0997334 22.9291 0.268449 22.6582L12.5384 2.96076C12.7813 2.57073 13.2588 2.39648 13.6959 2.53833L37.1622 10.1544C37.4355 10.2431 37.6575 10.4451 37.7714 10.7089L48.2201 34.8926C48.4512 35.4275 48.1779 36.046 47.6267 36.2351L11.3226 48.6915C10.8194 48.8642 10.269 48.6125 10.0704 48.1189Z" fill="#7D22FF"/>
<path d="M24.6393 29.0726L1.83643 24.1027C1.05389 23.9322 0.398376 24.7048 0.69418 25.4491L9.70241 48.115C9.89935 48.6105 10.4504 48.8643 10.955 48.6919L47.941 36.0551C48.4959 35.8655 48.7693 35.2413 48.5325 34.7048L38.6716 12.3729C38.355 11.6559 37.3741 11.5653 36.9315 12.2121L25.6776 28.6602C25.4477 28.9962 25.0371 29.1593 24.6393 29.0726Z" fill="#C39BFC"/>
<path d="M10.3784 48.6756L18.4865 27.5945M48.6487 35.7026L27.5676 25.3242" stroke="#7D22FF"/>
<path d="M12.6484 15.4178C16.6124 15.4178 17.3932 12.2335 16.9728 9.75684C17.6935 14.0025 22.0178 12.5368 23.4592 11.5259C20.216 15.064 23.5794 15.8895 25.6214 16.1254C21.8737 16.6915 22.3782 19.8993 23.0989 21.4325C20.5043 16.9038 17.3331 19.6635 16.252 21.4325C17.3331 16.4792 14.8106 16.1254 12.6484 15.4178Z" fill="white"/>
<path d="M18.4861 1C18.378 3.16216 18.2915 7.74595 18.8104 8.78378M25.2973 11.7027C25.9459 10.7297 32.1081 4.89189 33.4054 4.89189M12.9729 12.3514C11.8919 11.8108 6.81077 7.48649 1.62158 7.48649M13.9459 19.1622C12.7567 18.8378 8.62699 20.3297 6.81077 21.1081M17.8378 22.7297C17.5135 23.0541 15.2432 28.5676 15.2432 30.1892M24.6486 21.1081C25.5135 21.1081 32.2378 23.8324 34.054 25.6486M28.8648 14.9459C29.4054 14.7297 35.5459 15.3351 36.3243 15.5946" stroke="white" stroke-width="2"/>
</svg>
