<svg width="18" height="18" viewBox="0 0 18 18" fill="none" xmlns="http://www.w3.org/2000/svg">
<path d="M9.14562 2.61452C7.79536 2.55581 6.28366 3.51963 5.69659 4.00888C5.69659 3.56855 4.15546 1 3.34823 1C2.54101 1 1 7.82502 1 10.9807C1 14.1363 3.86197 16.925 9.14562 16.9984C14.4293 17.0718 16.9243 14.5766 16.9977 10.9807C17.0711 7.38469 15.3832 1 14.576 1C13.9302 1 12.6436 3.00592 12.081 4.00888C11.6651 3.56856 10.4959 2.67323 9.14562 2.61452Z" stroke="white"/>
<path d="M8.23626 14H6C6.06241 13.5784 6.08321 13.1473 6.08321 12.582V7.3988C6.08321 6.88144 6.06241 6.4503 6 6C6.48886 6.01916 6.8633 6.02874 7.52897 6.02874H9.80684C11.8663 6.02874 13 6.93892 13 8.60599C13 10.3114 11.8143 11.3269 9.79643 11.3269H8.15305V12.5533C8.15305 13.1186 8.18425 13.588 8.23626 14ZM8.15305 9.6982H9.70282C10.4309 9.6982 10.8574 9.32455 10.8574 8.66347C10.8574 8.0024 10.4517 7.65748 9.70282 7.65748H8.15305V9.6982Z" fill="white"/>
</svg>
